<svg xmlns="http://www.w3.org/2000/svg" width="5152" height="1245" viewBox="0 0 5152 1245">
  <defs>
    <linearGradient id="a" x1="46.635%" x2="95.652%" y1="15.09%" y2="64.506%">
      <stop stop-color="#EB5F24" offset="0%"/>
      <stop stop-color="#ED3025" offset="100%"/>
    </linearGradient>
  </defs>
  <g fill="none" fill-rule="evenodd" transform="translate(2 3)">
    <rect width="5147" height="1239" x=".5" y=".059" fill="#FFFFFF" fill-opacity=".01" stroke="#FFFFFF" stroke-opacity=".01" stroke-width="5"/>
    <path fill="url(#a)" d="M1023.25224,233.064104 C1026.93737,234.844729 1030.01275,235.54796 1032.47838,235.173796 C1036.51827,234.560734 1042.23356,230.552608 1049.62426,223.149418 C1075.96815,203.532045 1096.24299,191.242129 1110.44877,186.279668 C1131.75745,178.835978 1157.404,180.194095 1167.0422,182.132189 C1173.46767,183.424251 1182.1641,186.43196 1193.13149,191.155315 L1225.81317,192.691137 L1205.2045,222.539788 C1205.12395,230.892349 1205.25429,216.106179 1198.97962,251.084166 C1192.70495,286.062152 1136.62,346.692406 1135.32971,348.744493 C1140.92557,355.315586 1145.71817,359.541833 1149.70752,364.353815 C1157.8567,374.183401 1162.26401,382.071395 1164.09976,384.297357 C1329.10477,584.376068 1244.34893,1104.6907 1243.90044,1106.93339 C1243.20978,1110.38712 1242.51911,1111.76861 1241.82845,1111.07786 C1239.10537,1110.03548 1237.72666,1108.63721 1237.36981,1106.93339 C1176.03816,814.098235 997.178171,522.332766 929.49127,572.381918 C861.80437,622.43107 813.124531,665.481717 804.461051,674.846955 C674.925154,814.875483 474.747504,1028.72978 457.081649,1038.4534 C449.929377,1042.39015 445.357162,1047.14053 443.365004,1043.91281 C442.07679,1041.82562 443.332539,1038.24054 444.20201,1033.15755 L709.189428,667.333076 C712.078261,661.697344 712.165328,658.825223 709.45063,658.716714 C706.735932,658.608205 703.780506,659.887839 700.584352,662.555616 C493.846786,767.179677 332.705927,857.243059 325.848088,859.068734 C315.56133,861.807246 309.112284,865.948921 307.647163,860.310048 C306.670417,856.550799 311.413759,852.99963 330.460323,838.346726 C568.690645,678.449342 747.850676,541.69241 768.044828,516.405865 C788.238981,491.119319 812.115418,457.913543 810.430501,438.65261 C801.340621,334.742754 430.709793,216.989093 230.881755,186.292487 C228.674154,185.953366 227.292825,184.005171 226.737769,180.447903 C226.047105,179.757159 227.428433,179.066414 230.881755,178.37567 C233.124188,177.927131 755.800687,61.0018795 987.316454,212.974353 C995.821011,218.556947 1020.89934,231.927202 1023.25224,233.064104 Z" transform="rotate(5 746.312 623.125)"/>
    <path fill="#394662" fill-rule="nonzero" d="M1580.48,514.39 C1583.63335,514.676668 1587.28831,514.891666 1591.445,515.035 C1595.60169,515.178334 1600.54664,515.25 1606.28,515.25 C1639.82017,515.25 1664.68825,506.793418 1680.885,489.88 C1697.08175,472.966582 1705.18,449.603482 1705.18,419.79 C1705.18,388.543177 1697.44008,364.893414 1681.96,348.84 C1666.47992,332.786586 1641.97017,324.76 1608.43,324.76 C1603.84331,324.76 1599.11336,324.831666 1594.24,324.975 C1589.36664,325.118334 1584.78002,325.476664 1580.48,326.05 L1580.48,514.39 Z M1774.41,419.79 C1774.41,445.590129 1770.39671,468.093237 1762.37,487.3 C1754.34329,506.506763 1742.94841,522.416604 1728.185,535.03 C1713.42159,547.643396 1695.43344,557.103302 1674.22,563.41 C1653.00656,569.716698 1629.21347,572.87 1602.84,572.87 C1590.79994,572.87 1576.75341,572.368338 1560.7,571.365 C1544.64659,570.361662 1528.88008,568.283349 1513.4,565.13 L1513.4,274.88 C1528.88008,272.013319 1545.00492,270.078338 1561.775,269.075 C1578.54508,268.071662 1592.94994,267.57 1604.99,267.57 C1630.50346,267.57 1653.65156,270.436638 1674.435,276.17 C1695.21844,281.903362 1713.06326,290.933272 1727.97,303.26 C1742.87674,315.586728 1754.34329,331.353237 1762.37,350.56 C1770.39671,369.766763 1774.41,392.843199 1774.41,419.79 Z M1851.91,569 L1851.91,271.01 L2053.15,271.01 L2053.15,327.34 L1918.99,327.34 L1918.99,385.82 L2038.1,385.82 L2038.1,440.86 L1918.99,440.86 L1918.99,512.67 L2063.04,512.67 L2063.04,569 L1851.91,569 Z M2213.21,271.01 C2218.37003,280.470047 2224.3183,292.151597 2231.055,306.055 C2237.7917,319.958403 2244.81496,335.008252 2252.125,351.205 C2259.43504,367.401748 2266.6733,383.956582 2273.84,400.87 C2281.0067,417.783418 2287.7433,433.693259 2294.05,448.6 C2300.3567,433.693259 2307.0933,417.783418 2314.26,400.87 C2321.4267,383.956582 2328.66496,367.401748 2335.975,351.205 C2343.28504,335.008252 2350.3083,319.958403 2357.045,306.055 C2363.7817,292.151597 2369.72997,280.470047 2374.89,271.01 L2435.95,271.01 C2438.81668,290.790099 2441.46832,312.934877 2443.905,337.445 C2446.34168,361.955123 2448.49166,387.468201 2450.355,413.985 C2452.21834,440.501799 2453.93833,467.089867 2455.515,493.75 C2457.09168,520.410133 2458.45333,545.493216 2459.6,569 L2394.24,569 C2393.38,540.046522 2392.23334,508.513504 2390.8,474.4 C2389.36666,440.286496 2387.21668,405.88684 2384.35,371.2 C2379.18997,383.24006 2373.4567,396.569927 2367.15,411.19 C2360.8433,425.810073 2354.60836,440.429927 2348.445,455.05 C2342.28164,469.670073 2336.33336,483.644933 2330.6,496.975 C2324.86664,510.305067 2319.99335,521.699953 2315.98,531.16 L2269.11,531.16 C2265.09665,521.699953 2260.22336,510.305067 2254.49,496.975 C2248.75664,483.644933 2242.80836,469.670073 2236.645,455.05 C2230.48164,440.429927 2224.2467,425.810073 2217.94,411.19 C2211.6333,396.569927 2205.90003,383.24006 2200.74,371.2 C2197.87332,405.88684 2195.72334,440.286496 2194.29,474.4 C2192.85666,508.513504 2191.71001,540.046522 2190.85,569 L2125.49,569 C2126.63667,545.493216 2127.99833,520.410133 2129.575,493.75 C2131.15168,467.089867 2132.87166,440.501799 2134.735,413.985 C2136.59834,387.468201 2138.74832,361.955123 2141.185,337.445 C2143.62168,312.934877 2146.27332,290.790099 2149.14,271.01 L2213.21,271.01 Z M2597.73,419.79 C2597.73,434.410073 2599.52165,447.596608 2603.105,459.35 C2606.68835,471.103392 2611.8483,481.208291 2618.585,489.665 C2625.3217,498.121709 2633.56329,504.64331 2643.31,509.23 C2653.05672,513.81669 2664.2366,516.11 2676.85,516.11 C2689.17673,516.11 2700.28495,513.81669 2710.175,509.23 C2720.06505,504.64331 2728.3783,498.121709 2735.115,489.665 C2741.8517,481.208291 2747.01165,471.103392 2750.595,459.35 C2754.17835,447.596608 2755.97,434.410073 2755.97,419.79 C2755.97,405.169927 2754.17835,391.911726 2750.595,380.015 C2747.01165,368.118274 2741.8517,357.941709 2735.115,349.485 C2728.3783,341.028291 2720.06505,334.50669 2710.175,329.92 C2700.28495,325.33331 2689.17673,323.04 2676.85,323.04 C2664.2366,323.04 2653.05672,325.404976 2643.31,330.135 C2633.56329,334.865024 2625.3217,341.458291 2618.585,349.915 C2611.8483,358.371709 2606.68835,368.548274 2603.105,380.445 C2599.52165,392.341726 2597.73,405.456595 2597.73,419.79 Z M2825.2,419.79 C2825.2,445.303461 2821.40171,467.734903 2813.805,487.085 C2806.2083,506.435097 2795.81673,522.631601 2782.63,535.675 C2769.44327,548.718399 2753.74843,558.536634 2735.545,565.13 C2717.34158,571.723366 2697.77677,575.02 2676.85,575.02 C2656.49657,575.02 2637.29009,571.723366 2619.23,565.13 C2601.16991,558.536634 2585.4034,548.718399 2571.93,535.675 C2558.4566,522.631601 2547.85004,506.435097 2540.11,487.085 C2532.36996,467.734903 2528.5,445.303461 2528.5,419.79 C2528.5,394.276539 2532.51329,371.845097 2540.54,352.495 C2548.56671,333.144903 2559.38827,316.876733 2573.005,303.69 C2586.62174,290.503267 2602.38824,280.613366 2620.305,274.02 C2638.22176,267.426634 2657.0699,264.13 2676.85,264.13 C2697.20344,264.13 2716.40991,267.426634 2734.47,274.02 C2752.53009,280.613366 2768.2966,290.503267 2781.77,303.69 C2795.2434,316.876733 2805.84996,333.144903 2813.59,352.495 C2821.33004,371.845097 2825.2,394.276539 2825.2,419.79 Z M3078.57,569 C3072.54997,559.253285 3065.45504,548.71839 3057.285,537.395 C3049.11496,526.07161 3040.22838,514.74839 3030.625,503.425 C3021.02162,492.10161 3011.06005,481.208386 3000.74,470.745 C2990.41995,460.281614 2980.10005,451.036707 2969.78,443.01 L2969.78,569 L2902.7,569 L2902.7,271.01 L2969.78,271.01 L2969.78,383.67 C2987.26676,365.323242 3004.82491,346.188433 3022.455,326.265 C3040.08509,306.341567 3056.49659,287.923418 3071.69,271.01 L3151.24,271.01 C3130.88657,295.09012 3110.46177,318.309888 3089.965,340.67 C3069.46823,363.030112 3047.89678,385.53322 3025.25,408.18 C3049.04345,427.960099 3072.04822,451.46653 3094.265,478.7 C3116.48178,505.93347 3137.76657,536.033168 3158.12,569 L3078.57,569 Z M3305.71,267.57 C3350.43023,267.57 3384.68655,275.52492 3408.48,291.435 C3432.27345,307.34508 3444.17,332.069832 3444.17,365.61 C3444.17,386.536771 3439.36838,403.521601 3429.765,416.565 C3420.16162,429.608399 3406.33009,439.856629 3388.27,447.31 C3394.29003,454.763371 3400.59664,463.291619 3407.19,472.895 C3413.78337,482.498381 3420.30497,492.531614 3426.755,502.995 C3433.20503,513.458386 3439.43997,524.35161 3445.46,535.675 C3451.48003,546.99839 3457.06998,558.106612 3462.23,569 L3386.98,569 C3381.53331,559.253285 3376.01503,549.363384 3370.425,539.33 C3364.83497,529.296616 3359.1017,519.550047 3353.225,510.09 C3347.34831,500.629953 3341.54336,491.671709 3335.81,483.215 C3330.07664,474.758291 3324.34336,467.090034 3318.61,460.21 L3285.5,460.21 L3285.5,569 L3218.42,569 L3218.42,275.31 C3233.04008,272.443319 3248.16159,270.436672 3263.785,269.29 C3279.40841,268.143328 3293.38327,267.57 3305.71,267.57 Z M3309.58,324.76 C3304.70664,324.76 3300.33502,324.903332 3296.465,325.19 C3292.59498,325.476668 3288.94002,325.763332 3285.5,326.05 L3285.5,406.89 L3304.42,406.89 C3329.64679,406.89 3347.70661,403.736698 3358.6,397.43 C3369.49339,391.123302 3374.94,380.373409 3374.94,365.18 C3374.94,350.559927 3369.42172,340.168364 3358.385,334.005 C3347.34828,327.841636 3331.08011,324.76 3309.58,324.76 Z M3739.68,569 C3736.52665,558.679948 3733.01502,548.073388 3729.145,537.18 C3725.27498,526.286612 3721.47669,515.393388 3717.75,504.5 L3601.65,504.5 C3597.92332,515.393388 3594.12502,526.286612 3590.255,537.18 C3586.38498,548.073388 3582.87335,558.679948 3579.72,569 L3510.06,569 C3521.24006,536.893173 3531.84662,507.22347 3541.88,479.99 C3551.91339,452.756531 3561.73162,427.10012 3571.335,403.02 C3580.93838,378.93988 3590.39829,356.078442 3599.715,334.435 C3609.03172,312.791558 3618.70662,291.650103 3628.74,271.01 L3692.81,271.01 C3702.55672,291.650103 3712.15995,312.791558 3721.62,334.435 C3731.08005,356.078442 3740.61162,378.93988 3750.215,403.02 C3759.81838,427.10012 3769.63662,452.756531 3779.67,479.99 C3789.70339,507.22347 3800.30995,536.893173 3811.49,569 L3739.68,569 Z M3659.27,338.52 C3657.83666,342.820021 3655.68668,348.696629 3652.82,356.15 C3649.95332,363.603371 3646.65669,372.203285 3642.93,381.95 C3639.20332,391.696715 3635.11836,402.446608 3630.675,414.2 C3626.23165,425.953392 3621.71669,438.279936 3617.13,451.18 L3701.84,451.18 C3697.25331,438.279936 3692.81002,425.953392 3688.51,414.2 C3684.20998,402.446608 3680.12502,391.696715 3676.255,381.95 C3672.38498,372.203285 3669.01668,363.603371 3666.15,356.15 C3663.28332,348.696629 3660.99001,342.820021 3659.27,338.52 Z M4057.55,271.01 L4057.55,328.2 L3967.68,328.2 L3967.68,569 L3900.6,569 L3900.6,328.2 L3810.73,328.2 L3810.73,271.01 L4057.55,271.01 Z M4122.15,271.01 L4189.23,271.01 L4189.23,569 L4122.15,569 L4122.15,271.01 Z M4279.63,569 L4279.63,271.01 L4480.87,271.01 L4480.87,327.34 L4346.71,327.34 L4346.71,385.82 L4465.82,385.82 L4465.82,440.86 L4346.71,440.86 L4346.71,512.67 L4490.76,512.67 L4490.76,569 L4279.63,569 Z M1513.4,671.01 L1580.48,671.01 L1580.48,969 L1513.4,969 L1513.4,671.01 Z M1870.83,969 C1851.62324,934.886496 1830.84011,901.2035 1808.48,867.95 C1786.11989,834.6965 1762.32679,803.306814 1737.1,773.78 L1737.1,969 L1670.88,969 L1670.88,671.01 L1725.49,671.01 C1734.95005,680.470047 1745.41328,692.079931 1756.88,705.84 C1768.34672,719.600069 1780.02827,734.291589 1791.925,749.915 C1803.82173,765.538411 1815.64661,781.734916 1827.4,798.505 C1839.15339,815.275084 1850.18995,831.399923 1860.51,846.88 L1860.51,671.01 L1927.16,671.01 L1927.16,969 L1870.83,969 Z M2142.36,969 L2142.36,671.01 L2343.6,671.01 L2343.6,727.34 L2209.44,727.34 L2209.44,785.82 L2328.55,785.82 L2328.55,840.86 L2209.44,840.86 L2209.44,912.67 L2353.49,912.67 L2353.49,969 L2142.36,969 Z M2541.07,975.02 C2520.14323,975.02 2502.08341,972.081696 2486.89,966.205 C2471.69659,960.328304 2459.15505,952.158386 2449.265,941.695 C2439.37495,931.231614 2432.06503,918.761739 2427.335,904.285 C2422.60498,889.808261 2420.24,873.826754 2420.24,856.34 L2420.24,671.01 L2487.32,671.01 L2487.32,850.75 C2487.32,862.79006 2488.68165,873.038291 2491.405,881.495 C2494.12835,889.951709 2497.85498,896.83164 2502.585,902.135 C2507.31503,907.43836 2513.0483,911.236655 2519.785,913.53 C2526.5217,915.823345 2533.90329,916.97 2541.93,916.97 C2558.27008,916.97 2571.52828,911.953383 2581.705,901.92 C2591.88172,891.886616 2596.97,874.83012 2596.97,850.75 L2596.97,671.01 L2664.05,671.01 L2664.05,856.34 C2664.05,873.826754 2661.61336,889.879927 2656.74,904.5 C2651.86664,919.120073 2644.41339,931.661614 2634.38,942.125 C2624.34662,952.588386 2611.59008,960.686638 2596.11,966.42 C2580.62992,972.153362 2562.28344,975.02 2541.07,975.02 Z M2837.44,667.57 C2882.16023,667.57 2916.41655,675.52492 2940.21,691.435 C2964.00345,707.34508 2975.9,732.069832 2975.9,765.61 C2975.9,786.536771 2971.09838,803.521601 2961.495,816.565 C2951.89162,829.608399 2938.06009,839.856629 2920,847.31 C2926.02003,854.763371 2932.32664,863.291619 2938.92,872.895 C2945.51337,882.498381 2952.03497,892.531614 2958.485,902.995 C2964.93503,913.458386 2971.16997,924.35161 2977.19,935.675 C2983.21003,946.99839 2988.79998,958.106612 2993.96,969 L2918.71,969 C2913.26331,959.253285 2907.74503,949.363384 2902.155,939.33 C2896.56497,929.296617 2890.8317,919.550047 2884.955,910.09 C2879.07831,900.629953 2873.27336,891.671709 2867.54,883.215 C2861.80664,874.758291 2856.07336,867.090034 2850.34,860.21 L2817.23,860.21 L2817.23,969 L2750.15,969 L2750.15,675.31 C2764.77008,672.443319 2779.89159,670.436672 2795.515,669.29 C2811.13841,668.143328 2825.11327,667.57 2837.44,667.57 Z M2841.31,724.76 C2836.43664,724.76 2832.06502,724.903332 2828.195,725.19 C2824.32498,725.476668 2820.67002,725.763332 2817.23,726.05 L2817.23,806.89 L2836.15,806.89 C2861.37679,806.89 2879.43661,803.736698 2890.33,797.43 C2901.22339,791.123302 2906.67,780.373409 2906.67,765.18 C2906.67,750.559927 2901.15172,740.168364 2890.115,734.005 C2879.07828,727.841636 2862.81011,724.76 2841.31,724.76 Z M3107.15,819.79 C3107.15,834.410073 3108.94165,847.596608 3112.525,859.35 C3116.10835,871.103392 3121.2683,881.208291 3128.005,889.665 C3134.7417,898.121709 3142.98329,904.64331 3152.73,909.23 C3162.47672,913.81669 3173.65661,916.11 3186.27,916.11 C3198.59673,916.11 3209.70495,913.81669 3219.595,909.23 C3229.48505,904.64331 3237.7983,898.121709 3244.535,889.665 C3251.2717,881.208291 3256.43165,871.103392 3260.015,859.35 C3263.59835,847.596608 3265.39,834.410073 3265.39,819.79 C3265.39,805.169927 3263.59835,791.911726 3260.015,780.015 C3256.43165,768.118274 3251.2717,757.941709 3244.535,749.485 C3237.7983,741.028291 3229.48505,734.50669 3219.595,729.92 C3209.70495,725.33331 3198.59673,723.04 3186.27,723.04 C3173.65661,723.04 3162.47672,725.404976 3152.73,730.135 C3142.98329,734.865024 3134.7417,741.458291 3128.005,749.915 C3121.2683,758.371709 3116.10835,768.548274 3112.525,780.445 C3108.94165,792.341726 3107.15,805.456595 3107.15,819.79 Z M3334.62,819.79 C3334.62,845.303461 3330.82171,867.734903 3323.225,887.085 C3315.6283,906.435097 3305.23673,922.631601 3292.05,935.675 C3278.86327,948.718399 3263.16843,958.536634 3244.965,965.13 C3226.76158,971.723366 3207.19677,975.02 3186.27,975.02 C3165.91657,975.02 3146.71009,971.723366 3128.65,965.13 C3110.58991,958.536634 3094.8234,948.718399 3081.35,935.675 C3067.8766,922.631601 3057.27004,906.435097 3049.53,887.085 C3041.78996,867.734903 3037.92,845.303461 3037.92,819.79 C3037.92,794.276539 3041.9333,771.845097 3049.96,752.495 C3057.98671,733.144903 3068.80827,716.876733 3082.425,703.69 C3096.04174,690.503267 3111.80825,680.613366 3129.725,674.02 C3147.64176,667.426634 3166.4899,664.13 3186.27,664.13 C3206.62344,664.13 3225.82991,667.426634 3243.89,674.02 C3261.95009,680.613366 3277.7166,690.503267 3291.19,703.69 C3304.6634,716.876733 3315.26996,733.144903 3323.01,752.495 C3330.75004,771.845097 3334.62,794.276539 3334.62,819.79 Z M3501.56,667.57 C3545.99356,667.57 3580.10655,675.381589 3603.9,691.005 C3627.69345,706.628411 3639.59,732.213156 3639.59,767.76 C3639.59,803.593512 3627.55012,829.46492 3603.47,845.375 C3579.38988,861.28508 3544.99023,869.24 3500.27,869.24 L3479.2,869.24 L3479.2,969 L3412.12,969 L3412.12,675.31 C3426.74008,672.443319 3442.21992,670.436672 3458.56,669.29 C3474.90008,668.143328 3489.23327,667.57 3501.56,667.57 Z M3505.86,724.76 C3500.98664,724.76 3496.18503,724.903332 3491.455,725.19 C3486.72498,725.476668 3482.64002,725.763332 3479.2,726.05 L3479.2,812.05 L3500.27,812.05 C3523.49012,812.05 3540.97661,808.896698 3552.73,802.59 C3564.48339,796.283302 3570.36,784.530086 3570.36,767.33 C3570.36,759.016625 3568.85502,752.136694 3565.845,746.69 C3562.83499,741.243306 3558.53503,736.871683 3552.945,733.575 C3547.35497,730.278317 3540.54671,727.985006 3532.52,726.695 C3524.4933,725.404994 3515.60672,724.76 3505.86,724.76 Z M3910.16,969 C3907.00665,958.679948 3903.49502,948.073388 3899.625,937.18 C3895.75498,926.286612 3891.95669,915.393388 3888.23,904.5 L3772.13,904.5 C3768.40332,915.393388 3764.60502,926.286612 3760.735,937.18 C3756.86498,948.073388 3753.35335,958.679948 3750.2,969 L3680.54,969 C3691.72006,936.893173 3702.32662,907.223469 3712.36,879.99 C3722.39339,852.756531 3732.21162,827.10012 3741.815,803.02 C3751.41838,778.93988 3760.87829,756.078442 3770.195,734.435 C3779.51172,712.791558 3789.18662,691.650103 3799.22,671.01 L3863.29,671.01 C3873.03672,691.650103 3882.63996,712.791558 3892.1,734.435 C3901.56005,756.078442 3911.09162,778.93988 3920.695,803.02 C3930.29838,827.10012 3940.11662,852.756531 3950.15,879.99 C3960.18339,907.223469 3970.78995,936.893173 3981.97,969 L3910.16,969 Z M3829.75,738.52 C3828.31666,742.820021 3826.16668,748.696629 3823.3,756.15 C3820.43332,763.603371 3817.13669,772.203285 3813.41,781.95 C3809.68332,791.696715 3805.59836,802.446608 3801.155,814.2 C3796.71165,825.953392 3792.19669,838.279935 3787.61,851.18 L3872.32,851.18 C3867.73331,838.279935 3863.29002,825.953392 3858.99,814.2 C3854.68998,802.446608 3850.60502,791.696715 3846.735,781.95 C3842.86498,772.203285 3839.49668,763.603371 3836.63,756.15 C3833.76332,748.696629 3831.47001,742.820021 3829.75,738.52 Z"/>
  </g>
</svg>
