<svg xmlns="http://www.w3.org/2000/svg" width="118" height="80" viewBox="0 0 118 80">
  <g fill="#A7828F" fill-rule="evenodd">
    <path d="M13.5048828,31.3432618 C14.6923828,32.2436524 16.053711,32.4990235 17.2158203,32.4990235 C17.9394531,32.4990235 18.5859375,32.3999024 19.0654297,32.2958985 C19.5678711,32.1870118 19.925293,31.7353515 19.9160156,31.2216798 C19.9067383,30.7080078 19.5327149,30.2695313 19.0263672,30.178711 C18.4560547,30.0766601 18.0673828,29.8305664 17.8027344,29.4033203 C17.2436524,28.5019531 17.359375,26.9990235 17.5390625,26.0317383 L23.328125,26.0317383 C26.8691406,26.0317383 29.75,23.152832 29.75,19.6142578 L29.75,6.4174805 C29.75,2.87890625 26.8691406,2.34479103e-13 23.328125,2.34479103e-13 L12.0209961,2.34479103e-13 C11.5029297,2.34479103e-13 11.0834961,0.419921875 11.0834961,0.9375 C11.0834961,1.45507813 11.5029297,1.875 12.0209961,1.875 L23.328125,1.875 C25.8354492,1.875 27.875,3.91259763 27.875,6.4174805 L27.875,19.6142578 C27.875,22.1191406 25.8354492,24.1567383 23.328125,24.1567383 L16.7949219,24.1567383 C16.3793945,24.1567383 16.0136719,24.4301758 15.8959961,24.8286133 C15.7924805,25.178711 14.9228515,28.309082 16.2055664,30.3862305 C16.2402344,30.4423828 16.2763672,30.4975586 16.3139649,30.5512695 C15.7387695,30.4521485 15.1552735,30.241211 14.6376953,29.8491211 C13.4941406,28.9814453 12.84375,27.362793 12.7060547,25.0385743 C12.6767578,24.543457 12.2661133,24.1567383 11.7700195,24.1567383 L6.421875,24.1567383 C3.915039,24.1567383 1.875,22.1191406 1.875,19.6142578 L1.875,6.4174805 C1.875,3.91259763 3.915039,1.875 6.421875,1.875 L8,1.875 C8.51806638,1.875 8.9375,1.45507813 8.9375,0.9375 C8.9375,0.419921875 8.51806638,2.34479103e-13 8,2.34479103e-13 L6.421875,2.34479103e-13 C2.88085938,2.34479103e-13 0,2.87890625 0,6.4174805 L0,19.6142578 C0,23.152832 2.88085938,26.0317383 6.421875,26.0317383 L10.9116211,26.0317383 C11.2016601,28.472168 12.0717774,30.2563476 13.5048828,31.3432618 Z"/>
    <path fill-rule="nonzero" d="M6,10.3623047 C6,12.3310547 7.02294925,16.1748047 13.8730469,19.7983399 C14.1279296,19.9331055 14.4077148,20.0004882 14.6875,20.0004882 C14.9672851,20.0004882 15.2470703,19.9331055 15.5019531,19.7983399 C22.352539,16.1748047 23.375,12.3310547 23.375,10.3623047 C23.375,7.35546875 21.2612305,5 18.5625,5 C16.7045898,5 15.4003906,5.8759765 14.6875,6.527832 C13.9750976,5.8759765 12.6708984,5 10.8125,5 C8.1137695,5 6,7.35546875 6,10.3623047 Z M10.8125,6.875 C12.1347656,6.875 13.0454101,7.51953125 13.5761719,8.05957025 C13.8657226,8.3549805 14.270996,8.52392575 14.6875,8.52392575 C15.1040039,8.52392575 15.5092773,8.3549805 15.7988281,8.06005862 C16.3295898,7.51953125 17.2402344,6.875 18.5625,6.875 C20.4707031,6.875 21.5,8.671875 21.5,10.3623047 C21.5,12.9824219 19.0180664,15.8032226 14.6875,18.1079101 C10.3569335,15.8032226 7.875,12.9824219 7.875,10.3623047 C7.875,8.671875 8.90478513,6.875 10.8125,6.875 Z"/>
    <g fill-rule="nonzero" transform="rotate(-6 153.337 -154.6)">
      <path d="M33.7011268,24.8658662 C33.7261268,24.344537 33.3272518,23.9014638 32.8101268,23.8761345 C32.2878768,23.8506792 31.8533768,24.2530492 31.8283768,24.7745044 C31.7548768,26.3037118 31.3492518,27.3627524 30.7431268,27.607476 C30.6461268,27.6467931 30.5386268,27.6675857 30.4178768,27.669476 C30.3515018,27.6706101 30.2815018,27.6661996 30.2056268,27.6547321 C29.9901268,27.622976 29.7483768,27.5399313 29.4880018,27.4086223 C29.4876268,27.4083703 29.4872518,27.4081183 29.4867518,27.4079922 C28.1602518,26.7365776 26.6390018,25.0007036 25.2805018,22.7058215 C25.0400018,22.2994191 24.8048768,21.8748703 24.5766268,21.4363337 L25.8896268,20.9060573 C27.4108768,20.2919801 28.1526268,18.5446386 27.5432518,17.0110207 L27.5432518,17.0108947 C27.2481268,16.2679028 26.6836268,15.6854557 25.9537518,15.370667 C25.2241268,15.0558784 24.4161268,15.0463012 23.6795018,15.3439516 L22.3665018,15.874228 C21.4677518,12.7085736 21.2407518,9.79520363 21.8291268,8.13657762 C21.8291268,8.1364516 21.8291268,8.13632558 21.8292518,8.13619957 C21.9280018,7.85896379 22.0460018,7.63074835 22.1826268,7.45457762 C22.2270018,7.39686217 22.2742518,7.34469144 22.3277518,7.29541908 C22.4135018,7.21565079 22.5030018,7.15743127 22.6013768,7.11773615 C23.3077518,6.83230932 24.5480018,7.52880119 25.8373768,8.93615079 C27.3920018,10.6327077 28.8755018,13.145976 30.0146268,16.0128459 C30.7031268,17.7453175 31.2272518,19.5281955 31.5305018,21.1690532 C31.6252518,21.6821914 32.1141268,22.0211752 32.6238768,21.9250248 C33.1327518,21.8293784 33.4686268,21.3358988 33.3737518,20.8227605 C33.0436268,19.0368581 32.4991268,17.1820248 31.7551268,15.3099272 C30.5331268,12.2343744 28.9205018,9.51532152 27.2147518,7.65343127 C25.3021268,5.56609794 23.4162518,4.75241095 21.9042518,5.36308575 C21.5941268,5.48834591 21.3083768,5.67132152 21.0598768,5.90306542 C20.9316268,6.02101664 20.8107518,6.15333371 20.7031268,6.29358981 C20.4611268,6.60573209 20.2582518,6.98466298 20.0962518,7.41752883 L15.5467518,16.0980329 L10.1677518,18.2704272 C7.45400184,19.3662646 6.13050184,22.4837809 7.21762684,25.2197199 C7.74425184,26.5449069 8.75137684,27.5839109 10.0525018,28.1453134 C10.1350018,28.180976 10.2181268,28.2144963 10.3017518,28.2457483 C10.3295018,28.2560817 10.3575018,28.2649028 10.3853768,28.2748581 C10.4415018,28.2947687 10.4975018,28.3150573 10.5540018,28.3330776 C10.5872518,28.343663 10.6207518,28.3524841 10.6541268,28.3624394 C10.7056268,28.3776874 10.7571268,28.3935654 10.8090018,28.4071752 C10.8445018,28.4166264 10.8803768,28.4243134 10.9161268,28.4328825 C10.9661268,28.4449801 11.0160018,28.4574557 11.0662518,28.468041 C11.1031268,28.475854 11.1401268,28.4819028 11.1771268,28.4889597 C11.2265018,28.4982849 11.2757518,28.5079882 11.3253768,28.5158012 C11.3631268,28.521724 11.4010018,28.5262605 11.4387518,28.5313012 C11.4876268,28.5379801 11.5365018,28.5449109 11.5855018,28.5502036 C11.6238768,28.5543622 11.6623768,28.5570085 11.7008768,28.5602849 C11.7495018,28.5644435 11.7981268,28.568728 11.8468768,28.5715004 C11.8856268,28.5736427 11.9245018,28.5743988 11.9633768,28.5757849 C12.0117518,28.5774231 12.0601268,28.5791874 12.1086268,28.5795654 C12.1183768,28.5795654 12.1280018,28.5803215 12.1377518,28.5803215 C12.1712518,28.5803215 12.2046268,28.5785573 12.2380018,28.5779272 C12.2791268,28.5771711 12.3202518,28.576667 12.3615018,28.5749028 C12.3668768,28.5746508 12.3722518,28.5747768 12.3776268,28.5745248 L13.7986268,32.1504882 C14.0502518,32.7837199 14.5313768,33.28035 15.1535018,33.5487646 C15.4737518,33.6870044 15.8116268,33.7561874 16.1498768,33.7561874 C16.4685018,33.7561874 16.7875018,33.6946914 17.0922518,33.5715736 C17.7203768,33.3179028 18.2130018,32.8328662 18.4792518,32.2056833 C18.7455018,31.5785004 18.7535018,30.8845288 18.5018768,30.2511711 L17.1902518,26.9503012 L19.4901268,26.0214353 L28.7155018,29.1311386 C29.1326268,29.3342768 29.5422518,29.46735 29.9307518,29.5246874 C30.0866268,29.5483784 30.2428768,29.56035 30.3922518,29.56035 C30.4130018,29.56035 30.4337518,29.5600979 30.4542518,29.5595939 C30.7990018,29.5540492 31.1308768,29.4876386 31.4410018,29.3623784 C32.3917518,28.9780288 33.5560018,27.886224 33.7011268,24.8658662 Z M24.3768768,17.098602 C24.6491268,16.9887158 24.9472518,16.9923703 25.2162518,17.1084313 C25.4855018,17.2246183 25.6938768,17.439602 25.8028768,17.7136874 C26.0277518,18.2797524 25.7538768,18.9247036 25.1925018,19.1514069 L23.7587518,19.7303256 C23.7445018,19.6979394 23.7302518,19.6655532 23.7161268,19.633041 C23.6693768,19.5259272 23.6232518,19.4185614 23.5778768,19.3109435 C23.5586268,19.2653256 23.5392518,19.2199597 23.5201268,19.1740898 C23.4560018,19.0200979 23.3927518,18.8659801 23.3315018,18.7117362 C23.2703768,18.5579963 23.2107518,18.4028703 23.1518768,18.2472402 C23.1340018,18.1999841 23.1165018,18.152728 23.0988768,18.1053459 C23.0580018,17.9958378 23.0178768,17.8859516 22.9782518,17.7756874 C22.9665018,17.7429231 22.9547518,17.7101589 22.9431268,17.6773947 L24.3768768,17.098602 Z M8.95787684,24.5166752 C8.25525184,22.748415 9.11075184,20.733415 10.8647518,20.0249516 L13.8356268,18.8251508 C14.2962518,21.1136061 15.1502518,23.2628134 16.3843768,25.2388744 L13.4133768,26.4386752 C13.2178768,26.5176874 13.0106268,26.5791833 12.7978768,26.6216508 C12.7926268,26.6226589 12.7876268,26.6245492 12.7823768,26.6256833 C12.1161268,26.7556061 11.4277518,26.6830207 10.7908768,26.4074231 C9.94925184,26.0446223 9.29825184,25.3729557 8.95787684,24.5166752 Z M16.7551268,31.4616833 C16.6858768,31.6246223 16.5580018,31.7506386 16.3946268,31.8165451 C16.2312518,31.8824516 16.0525018,31.8803093 15.8910018,31.8106223 C15.7292518,31.7408093 15.6042518,31.6117687 15.5388768,31.4471914 L14.2272518,28.1464475 L15.4493768,27.6528418 L16.7610018,30.9537118 C16.8263768,31.118415 16.8242518,31.2987443 16.7551268,31.4616833 Z M19.7577518,24.1184638 C19.5471268,24.0475166 19.3181268,24.0540695 19.1118768,24.1374922 L18.1585018,24.5224719 C16.8827518,22.5644313 16.0278768,20.4129557 15.6098768,18.1084963 L16.5632518,17.7235166 C16.7695018,17.6402199 16.9397518,17.485724 17.0435018,17.2877524 L19.7177518,12.1856061 C19.7193768,12.2016101 19.7216268,12.2181183 19.7232518,12.2341223 C19.7317518,12.3146467 19.7413768,12.3959272 19.7508768,12.4772077 C19.7570018,12.5288744 19.7626268,12.580163 19.7692518,12.6320817 C19.7805018,12.7214272 19.7930018,12.8117809 19.8056268,12.9020085 C19.8118768,12.9469963 19.8176268,12.9916061 19.8241268,13.0368459 C19.8407518,13.1508906 19.8588768,13.2658175 19.8775018,13.3813744 C19.8811268,13.4036792 19.8842518,13.4256061 19.8878768,13.4479109 C19.9110018,13.587663 19.9356268,13.7285492 19.9616268,13.8703175 C19.9658768,13.8935044 19.9707518,13.9170695 19.9751268,13.9402565 C19.9971268,14.0575776 20.0196268,14.1751508 20.0436268,14.2937321 C20.0528768,14.33935 20.0630018,14.3854719 20.0725018,14.4312158 C20.0926268,14.5279963 20.1128768,14.6247768 20.1343768,14.7223134 C20.1461268,14.7757443 20.1587518,14.8295532 20.1708768,14.8831101 C20.1915018,14.9740939 20.2122518,15.0650776 20.2340018,15.1565654 C20.2476268,15.2139028 20.2618768,15.2714922 20.2760018,15.3289557 C20.2976268,15.417167 20.3193768,15.5055044 20.3420018,15.5942199 C20.3573768,15.6545817 20.3732518,15.7150695 20.3892518,15.7755573 C20.4121268,15.8626345 20.4352518,15.9497118 20.4590018,16.037167 C20.4758768,16.098915 20.4930018,16.160663 20.5102518,16.222537 C20.5346268,16.3094882 20.5593768,16.3966914 20.5846268,16.4841467 C20.6027518,16.5469028 20.6211268,16.6097849 20.6398768,16.672667 C20.6657518,16.7599963 20.6922518,16.8474516 20.7191268,16.9351589 C20.7385018,16.9982931 20.7578768,17.0614272 20.7777518,17.1246874 C20.8053768,17.2130248 20.8338768,17.3016142 20.8625018,17.3902036 C20.8828768,17.4532118 20.9031268,17.5162199 20.9240018,17.5794801 C20.9537518,17.6694557 20.9842518,17.7595573 21.0150018,17.8497849 C21.0361268,17.9119109 21.0570018,17.9739109 21.0785018,18.036163 C21.1108768,18.129667 21.1443768,18.2232971 21.1778768,18.3170532 C21.1990018,18.3761549 21.2196268,18.4352565 21.2412518,18.4944841 C21.2790018,18.5983215 21.3180018,18.7024109 21.3571268,18.8065004 C21.3755018,18.8555207 21.3932518,18.904289 21.4118768,18.9534353 C21.4702518,19.1069231 21.5298768,19.260537 21.5910018,19.4144028 C21.6520018,19.5678906 21.7138768,19.7201183 21.7766268,19.8713378 C21.7982518,19.9237605 21.8206268,19.9753012 21.8425018,20.0273459 C21.8838768,20.1257646 21.9252518,20.2243093 21.9673768,20.3218459 C21.9937518,20.3829638 22.0206268,20.4431996 22.0472518,20.5039394 C22.0856268,20.5913947 22.1240018,20.67885 22.1628768,20.7654231 C22.1916268,20.8294394 22.2208768,20.8928256 22.2500018,20.9564638 C22.2875018,21.0385004 22.3250018,21.120537 22.3630018,21.2016914 C22.3933768,21.2667158 22.4241268,21.3309841 22.4547518,21.3955044 C22.4922518,21.4742646 22.5297518,21.5528988 22.5677518,21.6309028 C22.5992518,21.6958012 22.6311268,21.7601955 22.6628768,21.8244638 C22.7006268,21.9007036 22.7383768,21.9765654 22.7765018,22.0519231 C22.8088768,22.1159394 22.8413768,22.1797036 22.8741268,22.2432158 C22.9126268,22.3179435 22.9512518,22.3922931 22.9901268,22.4662646 C23.0230018,22.5288947 23.0560018,22.5912727 23.0891268,22.6532727 C23.1283768,22.7266142 23.1677518,22.7993256 23.2073768,22.8717849 C23.2406268,22.9326508 23.2738768,22.9936427 23.3073768,23.0538784 C23.3478768,23.1268418 23.3887518,23.1989231 23.4295018,23.2708784 C23.4626268,23.329224 23.4956268,23.3878215 23.5290018,23.445537 C23.5707518,23.5179963 23.6130018,23.5894475 23.6551268,23.6608988 C23.6881268,23.71685 23.7210018,23.7731792 23.7541268,23.8285004 C23.7981268,23.9018418 23.8425018,23.9739231 23.8867518,24.0461305 C23.9183768,24.0977971 23.9498768,24.1500939 23.9817518,24.2011305 C24.0320018,24.2817809 24.0827518,24.3609191 24.1333768,24.4401833 C24.1596268,24.4812646 24.1857518,24.523228 24.2121268,24.5639313 C24.2881268,24.6811264 24.3645018,24.7968093 24.4413768,24.910728 C24.4707518,24.9543296 24.5005018,24.9965451 24.5298768,25.0396427 C24.5786268,25.1108418 24.6272518,25.1822931 24.6762518,25.2521061 C24.7117518,25.3027646 24.7476268,25.352037 24.7832518,25.4019394 C24.8265018,25.4623012 24.8696268,25.523167 24.9130018,25.5825207 C24.9511268,25.6346914 24.9895018,25.685602 25.0278768,25.7370166 C25.0690018,25.7922118 25.1101268,25.8475329 25.1515018,25.9017199 C25.1631268,25.9169679 25.1745018,25.9328459 25.1861268,25.9478418 L19.7577518,24.1184638 Z" transform="scale(-1 1) rotate(-36 0 81.845)"/>
      <path d="M28.3870173,37.2983746 L28.3870173,32.5828295 C28.3870173,31.0642726 27.1563923,29.8289471 25.6438923,29.8289471 L25.5385173,29.8289471 C25.0602673,29.8289471 24.6101423,29.9524295 24.2182673,30.169402 C23.7152673,29.5353001 22.9397673,29.1280844 22.0715173,29.1280844 L21.9661423,29.1280844 C21.5031423,29.1280844 21.0630173,29.242406 20.6758923,29.4485864 C20.1722673,28.8483668 19.4183923,28.4665001 18.5773923,28.4665001 L18.4720173,28.4665001 C18.0886423,28.4665001 17.7198923,28.5459354 17.3837673,28.691504 C16.8926423,27.9449628 16.0491423,27.4512844 15.0930173,27.4512844 L14.9876423,27.4512844 C13.4750173,27.4512844 12.2445173,28.6867354 12.2445173,30.2051668 L12.2445173,32.8590334 C11.1425173,32.7396922 10.2823923,32.9515197 9.63114233,33.4985315 C8.21939233,34.6845393 8.36139233,37.0386099 8.49889233,39.315253 C8.68651733,42.4223903 11.4453923,45.0293236 12.5086423,45.9238177 L12.5086423,47.6668766 L11.9790173,47.6668766 C11.4212673,47.6668766 10.9693923,48.1205236 10.9693923,48.6804609 L10.9693923,53.894704 L10.9693923,63.9371824 C10.9693923,64.4971197 11.4212673,64.9507668 11.9790173,64.9507668 L26.8603923,64.9507668 C27.4181423,64.9507668 27.8700173,64.4971197 27.8700173,63.9371824 L27.8700173,53.894704 L27.8700173,48.6804609 C27.8700173,48.1205236 27.4181423,47.6668766 26.8603923,47.6668766 L26.2322673,47.6668766 L26.2322673,44.8984373 C28.7167673,42.3740766 28.4340173,37.8697315 28.3870173,37.2983746 Z M25.8505173,62.9233471 L12.9883923,62.9233471 L12.9883923,54.9080373 L25.8505173,54.9080373 L25.8505173,62.9233471 Z M25.8505173,52.8809942 L12.9883923,52.8809942 L12.9883923,49.6940452 L13.5178923,49.6940452 L25.2222673,49.6940452 L25.8505173,49.6940452 L25.8505173,52.8809942 Z M24.5700173,43.6834413 C24.3432673,43.8760687 24.2127673,44.1589236 24.2127673,44.4572138 L24.2127673,47.667002 L14.5275173,47.667002 L14.5275173,47.6668766 L14.5275173,45.4367903 C14.5275173,45.1159119 14.3761423,44.8139824 14.1196423,44.6229864 C13.1650173,43.9117079 10.6565173,41.5499824 10.5142673,39.1923981 C10.4170173,37.5843668 10.2962673,35.5827981 10.9268923,35.053104 C11.1608923,34.8563354 11.6206423,34.8060138 12.2442673,34.9037707 L12.2442673,36.2805236 C12.2442673,36.8404609 12.6961423,37.2941079 13.2538923,37.2941079 C13.8116423,37.2941079 14.2635173,36.8404609 14.2635173,36.2805236 L14.2635173,30.2047903 C14.2635173,29.8041001 14.5882673,29.4780766 14.9873923,29.4780766 L15.0928923,29.4780766 C15.4920173,29.4780766 15.8167673,29.8041001 15.8167673,30.2047903 L15.8167673,30.675002 L15.8167673,34.1179511 C15.8167673,34.6778883 16.2686423,35.1315354 16.8263923,35.1315354 C17.3841423,35.1315354 17.8360173,34.6778883 17.8360173,34.1179511 L17.8360173,30.8759119 C17.9605173,30.643253 18.2021423,30.4934177 18.4718923,30.4934177 L18.5772673,30.4934177 C18.9763923,30.4934177 19.3011423,30.8194413 19.3011423,31.2201315 L19.3011423,31.3635668 L19.3011423,34.118202 C19.3011423,34.6781393 19.7530173,35.1317864 20.3107673,35.1317864 C20.8685173,35.1317864 21.3203923,34.6781393 21.3203923,34.118202 L21.3203923,31.5524295 C21.4418923,31.3107354 21.6881423,31.155253 21.9658923,31.155253 L22.0712673,31.155253 C22.4703923,31.155253 22.7951423,31.4812766 22.7951423,31.8818413 L22.7951423,32.582955 L22.7951423,34.6157707 C22.7951423,35.1757079 23.2470173,35.629355 23.8047673,35.629355 C24.3625173,35.629355 24.8143923,35.1755824 24.8143923,34.6157707 L24.8143923,32.5828295 C24.8143923,32.1821393 25.1391423,31.8561158 25.5382673,31.8561158 L25.6436423,31.8561158 C26.0427673,31.8561158 26.3675173,32.1821393 26.3675173,32.5828295 L26.3675173,37.3429236 C26.3675173,37.3753001 26.3691423,37.407802 26.3721423,37.4401785 C26.4887673,38.6517864 26.3917673,42.1352687 24.5700173,43.6834413 Z" transform="scale(-1 1) rotate(32 0 -18.03)"/>
    </g>
    <path fill-rule="nonzero" d="M31.1752114,20.734981 L30.5470864,20.734981 L30.5470864,17.9665417 C33.0318364,15.442181 32.7490864,10.9380868 32.7020864,10.3668555 L32.7020864,5.65080842 C32.7020864,4.13237704 31.4714614,2.89705155 29.9592114,2.89705155 L29.8538364,2.89705155 C29.3755864,2.89705155 28.9253364,3.02053391 28.5334614,3.23750646 C28.0304614,2.60352998 27.2550864,2.19618881 26.3868364,2.19618881 L26.2814614,2.19618881 C25.8183364,2.19618881 25.3780864,2.31038489 24.9909614,2.51643979 C24.4874614,1.91647116 23.7335864,1.53460449 22.8927114,1.53460449 L22.7873364,1.53460449 C22.4038364,1.53460449 22.0350864,1.61403979 21.6988364,1.75973391 C21.2077114,1.01306724 20.3642114,0.519388808 19.4080864,0.519388808 L19.3027114,0.519388808 C17.7903364,0.519388808 16.5598364,1.75483979 16.5598364,3.27327116 L16.5598364,5.92701234 C15.4580864,5.8084241 14.5972114,6.01949861 13.9462114,6.56663587 C12.5344614,7.75289469 12.6764614,10.1067143 12.8139614,12.3832319 C13.0015864,15.4903692 15.7607114,18.0973025 16.8239614,18.9917967 L16.8239614,20.7348555 L16.2943364,20.7348555 C15.7365864,20.7348555 15.2847114,21.1885025 15.2847114,21.7484398 L15.2847114,26.9624319 C15.1121825,26.8560509 15.1052902,26.8648727 15.2640344,26.9888973 C15.5021507,27.1749341 31.7071609,39.8356757 32.149162,40.1383848 L32.1875028,40.2109599 C32.7452528,40.2109599 32.128485,40.7247874 32.128485,40.1648502 L32.1850864,26.9625574 L32.1850864,21.7485653 C32.1849614,21.188879 31.7329614,20.734981 31.1752114,20.734981 Z M14.8294614,12.260628 C14.7322114,10.6525967 14.6114614,8.65115351 15.2420864,8.1214594 C15.4763364,7.92443979 15.9354614,7.87411822 16.5597114,7.97212606 L16.5597114,9.348879 C16.5597114,9.90881626 17.0115864,10.3624633 17.5693364,10.3624633 C18.1270864,10.3624633 18.5789614,9.90881626 18.5789614,9.348879 L18.5789614,3.27352214 C18.5789614,2.87283195 18.9035864,2.54680842 19.3025864,2.54680842 L19.4079614,2.54680842 C19.8070864,2.54680842 20.1318364,2.87283195 20.1318364,3.27352214 L20.1318364,3.74373391 L20.1318364,7.18668293 C20.1318364,7.74662018 20.5837114,8.20026724 21.1414614,8.20026724 C21.6992114,8.20026724 22.1510864,7.74662018 22.1510864,7.18668293 L22.1510864,3.94464371 C22.2754614,3.71211038 22.5173364,3.56227508 22.7872114,3.56227508 L22.8925864,3.56227508 C23.2917114,3.56227508 23.6164614,3.88829861 23.6164614,4.28898881 L23.6164614,4.43217312 L23.6164614,7.18693391 C23.6164614,7.74687116 24.0683364,8.20051822 24.6260864,8.20051822 C25.1838364,8.20051822 25.6357114,7.74687116 25.6357114,7.18693391 L25.6357114,4.62116136 C25.7570864,4.37959273 26.0034614,4.22411038 26.2812114,4.22411038 L26.3865864,4.22411038 C26.7855864,4.22411038 27.1102114,4.55013391 27.1102114,4.95069861 L27.1102114,5.65168685 L27.1102114,7.68450253 C27.1102114,8.24443979 27.5620864,8.69808685 28.1198364,8.69808685 C28.6774614,8.69808685 29.1294614,8.24443979 29.1294614,7.68450253 L29.1294614,5.65168685 C29.1294614,5.25112214 29.4543364,4.92509861 29.8535864,4.92509861 L29.9589614,4.92509861 C30.3579614,4.92509861 30.6825864,5.25112214 30.6825864,5.65168685 L30.6825864,10.4120319 C30.6825864,10.4444084 30.6842114,10.4769104 30.6872114,10.5092868 C30.8037114,11.7208947 30.7067114,15.2042516 28.8849614,16.7524241 C28.6582114,16.9450516 28.5277114,17.2279065 28.5277114,17.5261967 L28.5277114,20.7359849 L18.8429614,20.7359849 L18.8429614,18.5060241 C18.8429614,18.1853967 18.6913364,17.8834672 18.4360864,17.6923457 C18.4017114,17.6663692 15.0000864,15.0869182 14.8294614,12.260628 Z M30.4344707,38.2351408 L30.1877008,38.6485433 L16.2052277,27.6816181 L30.1655864,27.9762672 L30.4344707,38.2351408 Z M30.1655864,25.9490986 L17.3037114,25.9490986 L17.3037114,22.7622751 L17.8333364,22.7622751 L29.5374614,22.7622751 L30.1655864,22.7622751 L30.1655864,25.9490986 Z" transform="rotate(52 23.428 105.158)"/>
    <path fill-rule="nonzero" d="M106.909461,37.6199727 L117.709835,5.61729443 C117.88871,5.08732288 117.60409,4.5129361 117.074489,4.33402052 C116.544512,4.1552304 115.97038,4.43953805 115.791505,4.96963507 L115.072492,7.10018594 L101.730735,8.21106853 C101.361444,8.24180789 101.03844,8.47191391 100.888792,8.81092506 C100.876374,8.83915508 99.4669477,13.01105 99.4669477,13.01105 L92.1498733,13.4905839 C91.7405677,13.5174338 91.3880857,13.7885674 91.2568771,14.1771379 L85.3572569,31.6585455 C85.2492545,31.9786112 85.3078342,32.3315492 85.5138041,32.5994207 C85.7061012,32.8497269 86.0032648,32.9948919 86.3162337,32.9948919 C86.3381855,32.9948919 86.3603881,32.9942646 86.3824652,32.992759 L99.3875452,32.1403379 C99.7968508,32.113488 100.149333,31.8423543 100.280541,31.4537838 L101.695989,27.2596813 L108.465775,26.6762609 L104.470436,38.514927 C104.374475,38.3887074 104.269734,38.2668792 104.154456,38.1517008 C103.70731,37.7044536 104.961904,38.1235962 107.918236,39.4091285 C108.441566,38.8856812 108.224055,36.6782192 106.909461,37.6199727 Z M102.167888,11.3394565 L103.262213,12.7619985 L101.652336,12.867516 L102.167888,11.3394565 Z M98.5790945,30.1637347 L87.7594028,30.8729982 L92.9588257,15.4669361 L103.778643,14.757798 L98.5790945,30.1637347 Z M102.402458,25.1660177 L106.180287,13.9721253 C106.288289,13.6520596 106.22971,13.2991216 106.02374,13.0312501 C106.023614,13.0311246 103.749667,10.0748771 103.749667,10.0748771 L114.366399,9.19083838 L109.171994,24.5827228 L102.402458,25.1660177 Z" transform="scale(-1 1) rotate(1 0 -11612.763)"/>
    <path fill-rule="nonzero" d="M28.89225,16.6118902 L33.51125,18.5702902 C33.84425,18.7114667 34.195125,18.7821176 34.546,18.7821176 C34.884875,18.7821176 35.223875,18.7163608 35.547,18.5844706 C36.2055,18.3160471 36.720375,17.8061804 36.996625,17.1492392 L37.5585,15.8137725 C37.835,15.1567059 37.84,14.4307451 37.572625,13.7697882 C37.30525,13.1088314 36.7975,12.5920627 36.1415,12.314102 L30.6585,10.0005647 L30.912,9.0803451 C30.91525,9.06829804 30.9185,9.05625098 30.921125,9.04420392 C31.0905,8.32840784 30.972,7.58952157 30.587625,6.96345098 C30.20325,6.33712941 29.599,5.89879216 28.887,5.72900392 L28.7835,5.70428235 C28.317875,5.59322353 27.85175,5.60903529 27.4205,5.72938039 C27.077125,4.99563922 26.416375,4.41963922 25.571375,4.21797647 L25.46925,4.19363137 C25.01925,4.08633725 24.564875,4.09524706 24.141375,4.20567843 C24.106,4.13540392 24.0675,4.0665098 24.026,3.9987451 C23.6415,3.37242353 23.03725,2.93408627 22.32525,2.76429804 L22.221875,2.73957647 C21.849375,2.65060392 21.472875,2.6419451 21.113,2.7059451 C21.049625,2.53226667 20.968375,2.36385882 20.8695,2.20272941 C20.485125,1.57640784 19.880875,1.1379451 19.1665,0.967654902 L19.0655,0.943686275 C18.352375,0.773647059 17.61625,0.892611765 16.992625,1.27849412 C16.3735,1.6614902 15.93875,2.26183529 15.766875,2.97060392 L15.587125,3.64097255 L8.4775,0.641631373 C8.473875,0.64 8.470125,0.639121569 8.4665,0.637615686 C8.4475,0.629960784 8.42825,0.623309804 8.408875,0.616658824 C8.396,0.612392157 8.383125,0.60774902 8.37025,0.603984314 C8.35375,0.599090196 8.337,0.5952 8.320125,0.591058824 C8.30325,0.587168627 8.2865,0.583027451 8.2695,0.580015686 C8.256,0.577505882 8.2425,0.57574902 8.22875,0.573615686 C8.208125,0.570478431 8.187375,0.568094118 8.166875,0.566462745 C8.161625,0.566086275 8.1565,0.564956863 8.15125,0.564580392 L1.39075,0.127498039 C0.965375,0.0990117647 0.57525,0.33945098 0.4035,0.726713725 C0.23175,1.11410196 0.318125,1.56787451 0.620375,1.86415686 L5.37275,6.52398431 C5.374375,6.52561569 5.375875,6.52699608 5.377375,6.52862745 L5.37975,6.53088627 C5.3825,6.53377255 5.3855,6.53590588 5.388375,6.53854118 C5.408,6.5574902 5.428625,6.57581176 5.45,6.5932549 C5.460375,6.60178824 5.471125,6.60919216 5.48175,6.61734902 C5.49325,6.62588235 5.504125,6.63491765 5.516,6.64307451 C5.519,6.64520784 5.522375,6.64671373 5.525375,6.64884706 C5.542625,6.66051765 5.560375,6.67093333 5.57825,6.68122353 C5.707,6.76404706 5.841625,6.83846275 5.982,6.89781961 L10.30575,8.73098039 C9.986875,9.67090196 9.79225,10.7875137 9.617875,11.7931922 C9.066125,14.9708549 11.3245,18.2664784 12.083625,19.2662588 L12.087125,23.8747608 L11.246625,23.8747608 C10.688875,23.8747608 10.237,24.3284078 10.237,24.8883451 L10.237,30.1025882 L10.237,62.8611765 C10.237,63.4211137 10.688875,63.8747608 11.246625,63.8747608 L26.127875,63.8747608 C26.685625,63.8747608 27.1375,63.4211137 27.1375,62.8611765 L27.1375,37.4965961 C27.1375,36.9366588 26.685625,36.4830118 26.127875,36.4830118 C25.570125,36.4830118 25.11825,36.9366588 25.11825,37.4965961 L25.11825,61.8474667 L12.256375,61.8474667 L12.256375,31.1161725 L25.11825,31.1161725 L25.11825,32.8057725 L25.11825,33.9319216 C25.11825,34.4918588 25.570125,34.9455059 26.127875,34.9455059 C26.685625,34.9455059 27.1375,34.4917333 27.1375,33.9319216 L27.1375,32.8057725 L27.1375,30.1025882 L27.1375,24.8883451 C27.1375,24.3284078 26.685625,23.8746353 26.127875,23.8746353 L25.7045,23.8746353 L25.713625,21.2561569 C27.418875,20.1222275 28.376125,18.1526588 28.89225,16.6118902 Z M34.250125,13.7153255 L35.357625,14.1825255 C35.51525,14.2491608 35.6375,14.3736471 35.701875,14.5326431 C35.766375,14.6918902 35.765125,14.866698 35.6985,15.0249412 L35.136625,16.3606588 C35.070125,16.518902 34.946125,16.6416314 34.7875,16.7062588 C34.629,16.7710118 34.45475,16.7697569 34.297125,16.7028706 L33.116375,16.2022902 L34.250125,13.7153255 Z M29.42925,14.4631216 L30.116,11.9708863 L32.387625,12.9292549 L31.255375,15.4132078 L29.402125,14.6276392 C29.414125,14.5591216 29.423,14.5035294 29.42925,14.4631216 Z M5.779375,4.08922353 L3.981625,2.32646275 L6.53525,2.49160784 L5.779375,4.08922353 Z M7.43575,5.31350588 L8.584375,2.88577255 L15.057375,5.61681569 L14.3525,8.24596078 L7.43575,5.31350588 Z M25.11825,29.0890039 L12.256375,29.0890039 L12.256375,25.9020549 L25.11825,25.9020549 L25.11825,29.0890039 Z M24.249,19.7707294 C23.911,19.942902 23.697375,20.2906353 23.696125,20.6712471 L23.68525,23.7704784 L14.106,23.7704784 L14.102375,18.9131294 C14.10225,18.675702 14.018125,18.4446745 13.86625,18.2624627 C13.839,18.2290824 11.12275,14.9304471 11.607125,12.1414275 C11.759875,11.2618667 11.929125,10.2888157 12.171625,9.52207059 L13.997375,10.2963451 C14.107375,10.5928784 14.353,10.8338196 14.680625,10.9224157 C15.218125,11.0676078 15.773125,10.7476078 15.917875,10.2071216 L17.72,3.48511373 C17.72275,3.47532549 17.725125,3.46553725 17.727375,3.45574902 C17.772125,3.26713725 17.887125,3.10688627 18.051875,3.00498824 C18.216375,2.90321569 18.410375,2.87196863 18.600125,2.9171451 L18.70125,2.94111373 C18.889125,2.98603922 19.04875,3.10161569 19.15025,3.26701176 C19.251625,3.43228235 19.282875,3.62716863 19.238,3.81640784 L19.1355,4.24997647 L17.946125,8.38713725 C17.7915,8.92511373 18.100375,9.48693333 18.63625,9.64216471 C18.72975,9.6691451 18.824,9.68219608 18.91675,9.68219608 C19.355125,9.68219608 19.758625,9.39319216 19.88625,8.94945882 L21.0355,4.95184314 C21.209375,4.74390588 21.486,4.64828235 21.754125,4.71253333 L21.8575,4.7372549 C22.04575,4.78218039 22.205125,4.89775686 22.306625,5.06315294 C22.406125,5.22541176 22.43725,5.41640784 22.395875,5.6025098 L21.338125,9.18901961 C21.179875,9.72586667 21.485,10.2898196 22.01975,10.4485647 C22.115375,10.4769255 22.211875,10.4906039 22.30675,10.4906039 C22.742375,10.4906039 23.1445,10.2053647 23.274375,9.76439216 L24.2535,6.44417255 C24.424375,6.21013333 24.7155,6.09807059 25.0025,6.16683922 L25.104625,6.19118431 C25.492875,6.28392157 25.733875,6.67620392 25.6415,7.06622745 L25.488625,7.71338039 L24.62775,10.4676392 C24.460875,11.0017255 24.756875,11.5705725 25.288875,11.7382275 C25.3895,11.769851 25.49125,11.7850353 25.591375,11.7850353 C26.020875,11.7850353 26.419,11.507702 26.5545,11.0745098 L27.426125,8.28574118 C27.429875,8.27344314 27.43225,8.2611451 27.4355,8.24884706 C27.438625,8.2380549 27.442375,8.22763922 27.444875,8.21659608 C27.537125,7.82682353 27.927875,7.58475294 28.315625,7.6774902 L28.419125,7.70221176 C28.802625,7.79369412 29.04225,8.17769412 28.95925,8.56269804 L27.466,13.9831216 C27.45425,14.0254118 27.44525,14.0700863 27.43925,14.1133804 C27.43325,14.156298 26.800125,18.4720314 24.249,19.7707294 Z" transform="translate(49 13)"/>
  </g>
</svg>
