<svg xmlns="http://www.w3.org/2000/svg" width="119" height="79" viewBox="0 0 119 79">
  <g fill="#A7828F" fill-rule="evenodd">
    <path fill-rule="nonzero" d="M59.1348524,38.3771237 L69.9352266,6.37444549 C70.1141018,5.84447394 69.829482,5.27008716 69.2998809,5.09117158 C68.7699036,4.91238146 68.1957719,5.19668911 68.0168967,5.72678613 L67.2978836,7.85733699 L53.9561269,8.96821959 C53.5868362,8.99895895 53.2638322,9.22906496 53.1141842,9.56807612 C53.1017658,9.59630614 51.6923396,13.768201 51.6923396,13.768201 L44.3752652,14.2477349 C43.9659596,14.2745848 43.6134776,14.5457185 43.482269,14.934289 L37.5826488,32.4156966 C37.4746463,32.7357623 37.5332261,33.0887002 37.739196,33.3565718 C37.9314931,33.6068779 38.2286567,33.752043 38.5416256,33.752043 C38.5635773,33.752043 38.5857799,33.7514156 38.6078571,33.74991 L51.6129371,32.8974889 C52.0222427,32.870639 52.3747246,32.5995054 52.5059332,32.2109349 L53.9213805,28.0168324 L60.691167,27.433412 L56.8262277,41.2060331 C56.7302673,41.0798135 56.6255262,40.9579853 56.5102483,40.8428069 C55.8395291,40.1719361 60.4494472,37.4353703 59.1348524,38.3771237 Z M54.3932798,12.0966075 L55.4876047,13.5191495 L53.8777279,13.6246671 L54.3932798,12.0966075 Z M50.8044864,30.9208858 L39.9847947,31.6301493 L45.1842176,16.2240872 L56.0040347,15.5149491 L50.8044864,30.9208858 Z M54.6278497,25.9231687 L58.4056789,14.7292763 C58.5136813,14.4092106 58.4551016,14.0562727 58.2491317,13.7884012 C58.2490063,13.7882757 55.9750584,10.8320282 55.9750584,10.8320282 L66.5917907,9.94798944 L61.3973854,25.3398738 L54.6278497,25.9231687 Z" transform="scale(-1 1) rotate(-24 0 276.038)"/>
    <g transform="translate(0 26)">
      <path d="M22.0569679 43.2626916C21.5374019 43.2626916 21.1161796 43.684009 21.1161796 44.2036923L21.1161796 48.2266581C21.1161796 48.7463414 21.5374019 49.1676587 22.0569679 49.1676587 22.5765338 49.1676587 22.9977561 48.7463414 22.9977561 48.2266581L22.9977561 44.2036923C22.9977561 43.684009 22.5765338 43.2626916 22.0569679 43.2626916zM42.1675076 43.2626916C41.6479416 43.2626916 41.2267194 43.684009 41.2267194 44.2036923L41.2267194 48.2266581C41.2267194 48.7463414 41.6479416 49.1676587 42.1675076 49.1676587 42.6870736 49.1676587 43.1082958 48.7463414 43.1082958 48.2266581L43.1082958 44.2036923C43.1082958 43.684009 42.6870736 43.2626916 42.1675076 43.2626916zM14.4333219 23.2469811C12.2486862 22.1544167 8.15274523 22.14187 7.97938932 22.14187 7.45994879 22.14187 7.03885199 22.5629364 7.03872655 23.0826197 7.03860111 23.6021775 7.45957248 24.0236203 7.97913845 24.0238713 9.03758791 24.0244986 12.1089478 24.1886091 13.5918809 24.9302431 13.7269781 24.9978696 13.8704797 25.0297382 14.0118488 25.0297382 14.3569299 25.0297382 14.6892163 24.8390287 14.8540424 24.5094276 15.0864798 24.0445733 14.8980713 23.4793456 14.4333219 23.2469811zM4.96284599 41.2512087C4.44328002 41.2512087 4.02205778 41.6725261 4.02205778 42.1922093L4.02205778 48.2267836C4.02205778 48.7464668 4.44328002 49.1677842 4.96284599 49.1677842 5.48241196 49.1677842 5.90363421 48.7464668 5.90363421 48.2267836L5.90363421 42.1922093C5.90363421 41.6726515 5.4825374 41.2512087 4.96284599 41.2512087z"/>
      <path fill-rule="nonzero" d="M62.0368293,37.7368851 L58.2270133,35.831798 C58.2049362,35.8207569 58.1911379,35.7984238 58.1911379,35.7738323 L58.1913888,33.8585824 C59.7553551,32.7814504 60.8623493,31.0786156 61.1393173,29.0801813 C61.842776,27.864283 62.2134466,26.4909239 62.2134466,25.094479 C62.2134466,22.4904167 60.9598149,20.1740495 59.0249272,18.7163768 C59.1383235,18.3385965 59.1969033,17.9488967 59.1969033,17.5512926 C59.1969033,15.0913915 56.9704966,13.0900714 54.2340573,13.0900714 C51.4976179,13.0900714 49.2712113,15.0913915 49.2712113,17.5512926 C49.2712113,17.9493986 49.3291638,18.3392238 49.4425602,18.7167532 C48.2889029,19.5859869 47.3792235,20.7613594 46.8315593,22.1201643 C46.5983692,19.8280122 46.3555204,17.1183069 46.1225813,13.9618144 C45.8152571,9.79707111 44.3177732,6.2799872 41.7921958,3.79097783 C39.2858106,1.32078847 35.9384861,0.0151814766 32.1122377,0.0151814766 C28.2859894,0.0151814766 24.9386649,1.32078847 22.4325305,3.79085236 C19.9069532,6.2799872 18.4094692,9.79707111 18.1021451,13.9616889 C18.0204847,15.0674274 17.9376953,16.1154511 17.8545296,17.1130373 L8.98502921,17.1130373 C5.69402659,17.1130373 3.01654333,19.791125 3.01654333,23.0828706 L3.01654333,23.1389543 C3.01654333,23.9055561 3.19767642,24.6732872 3.54049965,25.3589629 L4.02205778,26.3224221 L4.02205778,27.8587624 C4.02205778,30.2935702 5.22162547,32.4783227 7.03860111,33.7930887 L7.03860111,35.1521446 C7.03860111,35.3264179 6.92156706,35.4814948 6.75410675,35.5294231 L2.87015669,36.6394274 C1.18025018,37.1222235 0,38.6872957 0,40.4452103 L0,48.2267836 C0,48.7464668 0.421222243,49.1677842 0.940788215,49.1677842 C1.46035419,49.1677842 1.88157643,48.7464668 1.88157643,48.2267836 L1.88157643,40.4452103 C1.88157643,39.5230297 2.50074051,38.7021008 3.38708845,38.4487834 L7.27116396,37.3387791 C7.41127868,37.2987552 7.54436885,37.2444281 7.67106167,37.1799382 L10.0552699,39.5646847 L10.0552699,48.2267836 C10.0552699,48.7464668 10.4764921,49.1677842 10.9960581,49.1677842 C11.5156241,49.1677842 11.9368463,48.7464668 11.9368463,48.2267836 L11.9368463,39.5646847 L14.3377378,37.1632511 C14.6586093,37.3207119 14.9783519,37.4123026 15.2126709,37.4793018 L16.1663792,37.7518156 C14.8739871,38.670985 14.0774531,40.1701872 14.0774531,41.7958599 L14.0774531,48.2265326 C14.0774531,48.7462159 14.4986753,49.1675333 15.0182413,49.1675333 C15.5378073,49.1675333 15.9590295,48.7462159 15.9590295,48.2265326 L15.9590295,41.7958599 C15.9590295,40.5760721 16.6799242,39.4694554 17.7955736,38.976622 L23.1743734,36.6004073 C24.8598895,39.976592 28.3041779,42.127343 32.1123632,42.127343 C35.934723,42.127343 39.367471,39.9813598 41.0519837,36.6011601 L46.4291528,38.976622 C47.5448022,39.4694554 48.2656968,40.5760721 48.2656968,41.7958599 L48.2656968,48.2265326 C48.2656968,48.7462159 48.6869191,49.1675333 49.206485,49.1675333 C49.726051,49.1675333 50.1472733,48.7462159 50.1472733,48.2265326 L50.1472733,41.7958599 C50.1472733,40.5921319 49.7098695,39.4581634 48.9591205,38.576634 L50.4150843,37.8485505 L51.5080293,38.8874152 C52.2724511,39.6141186 53.2531288,39.9772193 54.2341827,39.9772193 C55.2148603,39.9772193 56.1960397,39.6138676 56.9602106,38.8874152 L58.0530302,37.8486759 L61.1955137,39.420147 C61.9033628,39.7740887 62.3430245,40.4857361 62.3430245,41.2773058 L62.3430245,48.2266581 C62.3430245,48.7463414 62.7642467,49.1676587 63.2838127,49.1676587 C63.8033787,49.1676587 64.2246009,48.7463414 64.2246009,48.2266581 L64.2246009,41.2773058 C64.2244755,39.7684427 63.3861705,38.4117707 62.0368293,37.7368851 Z M54.2339318,14.9719472 C55.9328699,14.9719472 57.3152014,16.1290015 57.3152014,17.5511671 C57.3152014,17.6107638 57.3104347,17.6698587 57.3056681,17.7288281 C56.3596114,17.3326041 55.3219848,17.1130373 54.2339318,17.1130373 C53.1460043,17.1130373 52.1085031,17.3326041 51.1626973,17.7287026 C51.1578052,17.6697332 51.1526623,17.6107638 51.1526623,17.5511671 C51.1526623,16.1290015 52.5349938,14.9719472 54.2339318,14.9719472 Z M10.9961835,37.8442846 L8.85244079,35.7000579 C8.89672055,35.5234007 8.92042842,35.3395919 8.92042842,35.1520191 L8.92042842,34.7550423 C9.51224692,34.9493903 10.1364285,35.0646943 10.782311,35.0840161 C10.854689,35.0862745 10.9266906,35.0872783 10.9988177,35.0872783 C11.7123115,35.0872783 12.4088711,34.9795023 13.0716878,34.7738623 L13.0716878,35.1516427 C13.0716878,35.3557771 13.092636,35.540966 13.1298912,35.7100952 L10.9961835,37.8442846 Z M10.8387583,33.2026422 C8.11749703,33.1212143 5.90363421,30.7237957 5.90363421,27.8587624 L5.90363421,26.1002205 C5.90363421,25.9541772 5.86964039,25.8100159 5.80428697,25.679405 L5.22338161,24.517332 C5.01063803,24.0914978 4.89811976,23.6149751 4.89811976,23.1389543 L4.89811976,23.0828706 C4.89811976,20.8288605 6.73152784,18.9950385 8.98502921,18.9950385 L17.0941219,18.9950385 L17.0941219,22.9014457 C17.0941219,23.5326689 16.9449756,24.1648959 16.6626137,24.7294963 L16.1878292,25.6792795 C16.1224758,25.8100159 16.088482,25.9540517 16.088482,26.100095 L16.088482,28.1115779 C16.088482,29.5009967 15.5393125,30.7993266 14.542077,31.7671772 C13.5453433,32.7345258 12.2293687,33.2447991 10.8387583,33.2026422 Z M18.7016153,36.5189793 L15.7296026,35.6696949 C14.9531388,35.4478697 14.9532642,35.3612976 14.9532642,35.1518936 L14.9535151,33.8554457 C15.2694945,33.6365062 15.5707976,33.3914697 15.8526577,33.1178267 C16.0423206,32.933767 16.218938,32.7400463 16.3845167,32.5392995 C16.53567,32.8459403 16.7673548,33.1138118 17.0667763,33.3076579 C17.8209121,33.7961 19.2440111,34.6074934 21.3368258,35.3547734 L18.7016153,36.5189793 Z M32.1122377,40.2454673 C29.0512892,40.2454673 26.2790999,38.5341008 24.896643,35.8397024 L26.2660543,35.2347017 C27.3347897,34.7625703 28.0253283,33.7025018 28.0253283,32.5339045 L28.0253283,30.2760048 C29.2893713,30.7840197 30.6686923,31.064187 32.1122377,31.064187 C33.5557832,31.064187 34.9349787,30.7840197 36.1991472,30.2760048 L36.1991472,32.5339045 C36.1991472,33.7025018 36.8896857,34.7626958 37.9584211,35.2347017 L39.3275816,35.8395769 C37.9461282,38.5369865 35.1846012,40.2454673 32.1122377,40.2454673 Z M40.2700005,34.1984718 L38.718578,33.513047 C38.3310987,33.3419103 38.0807236,32.9574802 38.0807236,32.533779 L38.0807236,29.2986189 C41.1040406,27.3366953 43.1084213,23.9309004 43.1084213,20.0655208 L43.1084213,18.3010819 C43.1084213,17.1543158 42.6209675,16.0725415 41.7709967,15.3332914 C39.8807651,13.6889242 35.6019348,10.8193742 28.183757,10.0773638 C27.6680797,10.0256715 27.2057136,10.4028246 27.154033,10.920124 C27.1023523,11.4372979 27.4795457,11.8983882 27.9966029,11.9500805 C34.8963437,12.6401476 38.8146639,15.255753 40.5363063,16.7534495 C40.9752154,17.1351194 41.2268448,17.6993434 41.2268448,18.3010819 L41.2268448,20.0655208 C41.2268448,25.0923461 37.1380538,29.1820603 32.1123632,29.1820603 C27.0866725,29.1820603 22.9978815,25.0923461 22.9978815,20.0655208 L22.9978815,19.2783424 C22.9978815,18.9167472 23.1983321,18.585515 23.5340054,18.3921708 C24.7102415,17.7147758 26.2614131,16.4598574 26.9717709,14.3285537 C27.1360953,13.8355948 26.8696641,13.3026121 26.376691,13.1382506 C25.8839689,12.9738892 25.350981,13.2403806 25.1866567,13.7334649 C24.6633275,15.3038067 23.4884712,16.2466893 22.5950987,16.7612285 C21.6829105,17.2865578 21.1161796,18.2511461 21.1161796,19.2784679 L21.1161796,20.0656463 C21.1161796,23.9311513 23.1204349,27.3368208 26.1438773,29.2987443 L26.1438773,32.5339045 C26.1438773,32.9576057 25.8935022,33.3419103 25.5060229,33.5131724 L23.954475,34.1985973 C20.9243843,33.3877057 18.9828483,32.3065587 18.0893504,31.7280315 C18.0715381,31.7164886 18.061503,31.7033146 18.0665206,31.673579 C18.3946675,29.7333611 19.2378646,24.1369168 19.978704,14.1003297 C20.2519089,10.3971786 21.5570957,7.29564053 23.7531463,5.13133911 C25.900025,3.01559332 28.7905027,1.89718271 32.1122377,1.89718271 C35.4339728,1.89718271 38.3244505,3.01559332 40.4713292,5.13133911 C42.6673798,7.29564053 43.9725666,10.3970531 44.2458969,14.1002042 C44.9866109,24.1364149 45.829808,29.7331102 46.1580804,31.6734535 C46.1630979,31.7033146 46.1530628,31.7164886 46.1351251,31.7280315 C45.2403728,32.3073115 43.2988368,33.3878311 40.2700005,34.1984718 Z M50.2766003,35.7737069 C50.2766003,35.7984238 50.2629275,35.8206314 50.2408503,35.8316725 L47.2932981,37.3057813 C47.2583008,37.2893452 47.2246833,37.2709016 47.1893097,37.2552182 L42.8879005,35.3550243 C44.9797118,34.6079953 46.4025598,33.7969782 47.1576992,33.3079088 C47.8064667,32.8877207 48.1423909,32.1231263 48.0133147,31.3596611 C48.0062902,31.3178807 47.9986384,31.2720854 47.9911121,31.2269173 C48.5202114,32.2911263 49.3113516,33.1938596 50.2766003,33.8585824 L50.2766003,35.7737069 Z M55.663679,37.5233407 C54.862002,38.2856766 53.6058616,38.2855512 52.8039337,37.5233407 L51.9295025,36.6922489 C52.077018,36.4157202 52.1580513,36.1020533 52.1580513,35.7737069 L52.1580513,34.7723567 C52.8150978,34.9762402 53.5120337,35.0871528 54.2338064,35.0871528 C54.9554537,35.0871528 55.652515,34.9762402 56.3094361,34.7723567 L56.3093106,35.7734559 C56.3093106,36.1020533 56.3903439,36.4157202 56.5379849,36.6923744 L55.663679,37.5233407 Z M54.2339318,33.2050261 C51.6290774,33.2050261 49.4534733,31.2540181 49.1733693,28.6667683 C49.1583167,28.5281276 49.1127825,28.3946309 49.0397774,28.2756885 C48.4484606,27.3124802 48.1359935,26.2123878 48.1359935,25.0942281 C48.1359935,21.7312174 50.8714293,18.9950385 54.2339318,18.9950385 C57.5963089,18.9950385 60.3318702,21.7312174 60.3318702,25.0943536 C60.3318702,25.7426403 60.2261256,26.3847791 60.022539,26.9978096 C57.3512022,24.2833365 52.6519024,23.2195039 52.4253606,23.1695682 C52.1471381,23.1082149 51.8558701,23.1764688 51.6335932,23.355008 C51.4114417,23.5336727 51.2821147,23.8034262 51.2821147,24.0884866 C51.2821147,24.0946345 51.2392148,24.747438 50.5521885,25.4346194 C50.1847794,25.8021115 50.1847794,26.3979531 50.5521885,26.7653197 C50.9195977,27.1328118 51.5153048,27.1328118 51.8825885,26.7653197 C52.4116878,26.236101 52.7225242,25.6989778 52.9049117,25.2454155 C54.4879446,25.7157904 57.7735534,26.9037096 59.2480821,28.9888415 C58.8296195,31.4139883 56.7292785,33.2050261 54.2339318,33.2050261 Z"/>
      <path d="M59.2616295,42.4945842 C58.7420635,42.4945842 58.3208413,42.9159015 58.3208413,43.4355848 L58.3208413,48.2267836 C58.3208413,48.7464668 58.7420635,49.1677842 59.2616295,49.1677842 C59.7811955,49.1677842 60.2024177,48.7464668 60.2024177,48.2267836 L60.2024177,43.4355848 C60.2024177,42.9159015 59.7811955,42.4945842 59.2616295,42.4945842 Z"/>
    </g>
    <g fill-rule="nonzero" transform="matrix(-1 0 0 1 119 24)">
      <path d="M12.1682269 21.0841853C10.052206 21.0841853 8.33068905 22.806091 8.33068905 24.9225896 8.33068905 27.0390882 10.052206 28.7609938 12.1682269 28.7609938 14.2842478 28.7609938 16.0057647 27.0390882 16.0057647 24.9225896 16.0057647 22.806091 14.2842478 21.0841853 12.1682269 21.0841853zM12.1682269 26.8788671C11.0897073 26.8788671 10.2123909 26.0013527 10.2123909 24.9225896 10.2123909 23.8438265 11.0897073 22.966312 12.1682269 22.966312 13.2466211 22.966312 14.1240629 23.8438265 14.1240629 24.9225896 14.1240629 26.0012272 13.2466211 26.8788671 12.1682269 26.8788671zM22.1730705 21.0841853C20.0570497 21.0841853 18.3354072 22.806091 18.3354072 24.9225896 18.3354072 27.0390882 20.0570497 28.7609938 22.1730705 28.7609938 24.2890914 28.7609938 26.0106084 27.0390882 26.0106084 24.9225896 26.0106084 22.806091 24.2890914 21.0841853 22.1730705 21.0841853zM22.1730705 26.8788671C21.0944255 26.8788671 20.2171091 26.0013527 20.2171091 24.9225896 20.2171091 23.8438265 21.0945509 22.966312 22.1730705 22.966312 23.2515901 22.966312 24.1289065 23.8438265 24.1289065 24.9225896 24.1289065 26.0013527 23.2514647 26.8788671 22.1730705 26.8788671zM32.1779142 21.0841853C30.0618933 21.0841853 28.3403763 22.806091 28.3403763 24.9225896 28.3403763 27.0390882 30.0618933 28.7609938 32.1779142 28.7609938 34.293935 28.7609938 36.015452 27.0390882 36.015452 24.9225896 36.015452 22.806091 34.2938096 21.0841853 32.1779142 21.0841853zM32.1779142 26.8788671C31.0993946 26.8788671 30.2220782 26.0013527 30.2220782 24.9225896 30.2220782 23.8438265 31.09952 22.966312 32.1779142 22.966312 33.2563083 22.966312 34.1337501 23.8438265 34.1337501 24.9225896 34.1337501 26.0013527 33.2563083 26.8788671 32.1779142 26.8788671zM12.1682269 30.4471415C10.052206 30.4471415 8.33068905 32.1690471 8.33068905 34.2855457 8.33068905 36.4020443 10.052206 38.12395 12.1682269 38.12395 14.2842478 38.12395 16.0057647 36.4020443 16.0057647 34.2855457 16.0057647 32.1690471 14.2842478 30.4471415 12.1682269 30.4471415zM12.1682269 36.2418233C11.0897073 36.2418233 10.2123909 35.3643088 10.2123909 34.2855457 10.2123909 33.2067826 11.0897073 32.3292682 12.1682269 32.3292682 13.2466211 32.3292682 14.1240629 33.2067826 14.1240629 34.2855457 14.1240629 35.3643088 13.2466211 36.2418233 12.1682269 36.2418233zM32.1779142 30.4471415C30.0618933 30.4471415 28.3403763 32.1690471 28.3403763 34.2855457 28.3403763 36.4020443 30.0618933 38.12395 32.1779142 38.12395 34.293935 38.12395 36.015452 36.4020443 36.015452 34.2855457 36.0153266 32.1690471 34.2938096 30.4471415 32.1779142 30.4471415zM32.1779142 36.2418233C31.0993946 36.2418233 30.2220782 35.3643088 30.2220782 34.2855457 30.2220782 33.2067826 31.09952 32.3292682 32.1779142 32.3292682 33.2563083 32.3292682 34.1337501 33.2067826 34.1337501 34.2855457 34.1336247 35.3643088 33.2563083 36.2418233 32.1779142 36.2418233zM22.1730705 30.4471415C20.0570497 30.4471415 18.3354072 32.1690471 18.3354072 34.2855457 18.3354072 36.4020443 20.0570497 38.12395 22.1730705 38.12395 24.2890914 38.12395 26.0106084 36.4020443 26.0106084 34.2855457 26.0106084 32.1690471 24.2890914 30.4471415 22.1730705 30.4471415zM22.1730705 36.2418233C21.0944255 36.2418233 20.2171091 35.3643088 20.2171091 34.2855457 20.2171091 33.2067826 21.0945509 32.3292682 22.1730705 32.3292682 23.2515901 32.3292682 24.1289065 33.2067826 24.1289065 34.2855457 24.1289065 35.3643088 23.2514647 36.2418233 22.1730705 36.2418233zM22.1730705 39.8100976C20.0570497 39.8100976 18.3355327 41.5321288 18.3355327 43.6486274 18.3355327 45.765126 20.0570497 47.4870316 22.1730705 47.4870316 24.2890914 47.4870316 26.0106084 45.765126 26.0106084 43.6486274 26.0106084 41.5321288 24.2890914 39.8100976 22.1730705 39.8100976zM22.1730705 45.6047794C21.0944255 45.6047794 20.2171091 44.727265 20.2171091 43.6485019 20.2172346 42.5698643 21.0945509 41.6920989 22.1730705 41.6920989 23.2515901 41.6920989 24.1289065 42.5696133 24.1289065 43.6485019 24.1289065 44.727265 23.2514647 45.6047794 22.1730705 45.6047794zM12.1682269 39.8100976C10.052206 39.8100976 8.33068905 41.5321288 8.33068905 43.6486274 8.33068905 45.765126 10.052206 47.4870316 12.1682269 47.4870316 14.2842478 47.4870316 16.0057647 45.765126 16.0057647 43.6486274 16.0057647 41.5321288 14.2842478 39.8100976 12.1682269 39.8100976zM12.1682269 45.6047794C11.0897073 45.6047794 10.2123909 44.727265 10.2123909 43.6485019 10.2123909 42.5697388 11.0897073 41.6920989 12.1682269 41.6920989 13.2466211 41.6920989 14.1240629 42.5696133 14.1240629 43.6485019 14.1239374 44.727265 13.2466211 45.6047794 12.1682269 45.6047794z"/>
      <path d="M53.1704115,47.8313124 L50.6045685,34.3254442 C50.5076046,33.81492 50.0140043,33.4796728 49.5044734,33.5766586 C48.9940645,33.6736444 48.658893,34.1662269 48.7558569,34.677002 L51.3217,48.1828702 C51.4652015,48.9388074 50.8270962,49.6523368 49.9579334,49.6523368 L36.0355222,49.6523368 L45.0658346,40.620111 C45.2310371,40.4548713 45.3412974,40.2134732 45.3412974,39.9546353 L45.3412974,16.7037647 L47.9214405,30.2852894 C48.0184044,30.7958136 48.5113774,31.1311862 49.0214101,31.0340749 C49.531819,30.9370891 49.8669905,30.4445067 49.7700266,29.9337315 L45.3351509,6.5897646 C45.2713028,5.20097315 44.1250464,4.09009056 42.721265,4.09009056 L34.4761971,4.09009056 L34.4761971,1.06420897 C34.4761971,0.544400225 34.0551002,0.123208348 33.5354088,0.123208348 C33.0157174,0.123208348 32.5946206,0.544400225 32.5946206,1.06420897 L32.5946206,4.08996509 L26.2938484,4.08996509 L26.2938484,1.06420897 C26.2938484,0.544400225 25.8727515,0.123208348 25.3530601,0.123208348 C24.8333687,0.123208348 24.4122719,0.544400225 24.4122719,1.06420897 L24.4122719,4.08996509 L18.1113742,4.08996509 L18.1113742,1.06420897 C18.1113742,0.544400225 17.6902774,0.123208348 17.170586,0.123208348 C16.6508946,0.123208348 16.2297978,0.544400225 16.2297978,1.06420897 L16.2297978,4.08996509 L9.92902551,4.08996509 L9.92902551,1.06420897 C9.92902551,0.544400225 9.5079287,0.123208348 8.98823729,0.123208348 C8.46854588,0.123208348 8.04744908,0.544400225 8.04744908,1.06420897 L8.04744908,4.08996509 L7.74667681,4.08996509 L5.86510038,4.08996509 L2.62003246,4.08996509 C1.17535808,4.09009056 -5.45696821e-12,5.26558853 -5.45696821e-12,6.71071455 L-5.45696821e-12,51.4579288 C-5.45696821e-12,52.9029293 1.17535808,54.0784273 2.62003246,54.0784273 L14.9754135,54.0784273 C15.4951049,54.0784273 15.9162017,53.6572354 15.9162017,53.1374267 C15.9162017,52.6176179 15.4951049,52.196426 14.9754135,52.196426 L2.62003246,52.196426 C2.21298476,52.196426 1.88170187,51.8651938 1.88170187,51.4580542 L1.88170187,16.3082935 L43.459721,16.3082935 L43.459721,39.0132583 L32.8995614,39.0132583 C31.4548871,39.0132583 30.2796544,40.1888818 30.2796544,41.6338823 L30.2796544,52.1963006 L19.3658839,52.1963006 C18.8461925,52.1963006 18.4250957,52.6174925 18.4250957,53.1373012 C18.4250957,53.6571099 18.8461925,54.0783018 19.3658839,54.0783018 L31.2204426,54.0783018 C31.463166,54.0783018 31.7065165,53.9820688 31.8857681,53.8027768 L34.1536949,51.534338 L49.9580588,51.534338 C52.0014508,51.534338 53.5359391,49.7549686 53.1704115,47.8313124 Z M1.88170187,6.71071455 C1.88170187,6.30357494 2.21298476,5.97221726 2.62003246,5.97221726 L5.86510038,5.97221726 L7.74667681,5.97221726 L8.04744908,5.97221726 L8.04744908,10.199192 C8.04744908,10.7190008 8.46854588,11.1401927 8.98823729,11.1401927 C9.5079287,11.1401927 9.92902551,10.7190008 9.92902551,10.199192 L9.92902551,5.97221726 L16.2297978,5.97221726 L16.2297978,10.199192 C16.2297978,10.7190008 16.6508946,11.1401927 17.170586,11.1401927 C17.6902774,11.1401927 18.1113742,10.7190008 18.1113742,10.199192 L18.1113742,5.97221726 L24.4122719,5.97221726 L24.4122719,10.199192 C24.4122719,10.7190008 24.8333687,11.1401927 25.3530601,11.1401927 C25.8727515,11.1401927 26.2938484,10.7190008 26.2938484,10.199192 L26.2938484,5.97221726 L32.5946206,5.97221726 L32.5946206,10.199192 C32.5946206,10.7190008 33.0157174,11.1401927 33.5354088,11.1401927 C34.0551002,11.1401927 34.4761971,10.7190008 34.4761971,10.199192 L34.4761971,5.97221726 L42.721265,5.97221726 C43.1283127,5.97221726 43.4595956,6.30357494 43.4595956,6.71071455 L43.4595956,14.4262923 L1.88170187,14.4262923 L1.88170187,6.71071455 Z M32.1612309,50.8654748 L32.1612309,41.6340078 C32.1612309,41.2268682 32.4923883,40.8955105 32.899436,40.8955105 L42.1289447,40.8955105 C41.1875293,41.8372639 33.1046533,49.9218394 32.1612309,50.8654748 Z"/>
    </g>
  </g>
</svg>
