<svg xmlns="http://www.w3.org/2000/svg" width="23" height="22" viewBox="0 0 23 22">
  <g fill="none" fill-rule="evenodd" transform="translate(0 -1)">
    <rect width="24" height="24"/>
    <path fill="#FFF" d="M19.5923684,1 C21.6918857,3.00322297 23,5.82868376 23,8.95967102 C23,12.0906583 21.6918857,14.916119 19.5923684,16.919342 L18.1140136,15.5641835 C19.8889549,13.920277 21,11.5697232 21,8.95967102 C21,6.34961879 19.8889549,3.99906504 18.1140136,2.35515855 L19.5923684,1 Z M16.6333356,3.7124467 C18.0847503,4.9950304 19,6.8704667 19,8.95967102 C19,11.0488753 18.0847503,12.9243116 16.6333356,14.2068953 L15.1475031,12.8448821 C16.2776752,11.9281714 17,10.5282752 17,8.95967102 C17,7.39106682 16.2776752,5.99117059 15.1475031,5.07445988 L16.6333356,3.7124467 Z M18,22.959671 L16,22.959671 L16,20.959671 C16,19.3028168 14.6568543,17.959671 13,17.959671 L5,17.959671 C3.34314575,17.959671 2,19.3028168 2,20.959671 L2,22.959671 L-1.0658141e-14,22.959671 L-1.0658141e-14,20.959671 C-1.0658141e-14,18.1982473 2.23857625,15.959671 5,15.959671 L13,15.959671 C15.7614237,15.959671 18,18.1982473 18,20.959671 L18,22.959671 Z M9,13.959671 C6.23857625,13.959671 4,11.7210948 4,8.95967102 C4,6.19824727 6.23857625,3.95967102 9,3.95967102 C11.7614237,3.95967102 14,6.19824727 14,8.95967102 C14,11.7210948 11.7614237,13.959671 9,13.959671 Z M9,11.959671 C10.6568542,11.959671 12,10.6165253 12,8.95967102 C12,7.30281677 10.6568542,5.95967102 9,5.95967102 C7.34314575,5.95967102 6,7.30281677 6,8.95967102 C6,10.6165253 7.34314575,11.959671 9,11.959671 Z"/>
  </g>
</svg>
