<svg xmlns="http://www.w3.org/2000/svg" width="2453" height="688" viewBox="0 0 2453 688" xmlns:xlink="http://www.w3.org/1999/xlink">
  <defs>
    <path id="a" d="M1188.56509,325.837682 C1190.36351,326.001187 1192.73413,326.123814 1195.67701,326.205567 C1198.61989,326.28732 1202.62542,326.328195 1207.69372,326.328195 C1228.45737,326.328195 1243.94814,321.055231 1254.16647,310.509143 C1264.38481,299.963056 1269.4939,285.20693 1269.4939,266.240323 C1269.4939,246.946705 1264.50742,232.149704 1254.53433,221.848874 C1244.56123,211.548045 1229.11134,206.397707 1208.18419,206.397707 C1199.02856,206.397707 1192.48893,206.642961 1188.56509,207.133477 L1188.56509,325.837682 Z M1301.86542,266.240323 C1301.86542,280.955794 1299.57655,293.749886 1294.99873,304.622984 C1290.42092,315.496082 1283.92216,324.570487 1275.50225,331.846469 C1267.08234,339.122452 1256.9459,344.518044 1245.09263,348.033406 C1233.23937,351.548769 1220.11922,353.306424 1205.7318,353.306424 C1198.86508,353.306424 1191.09927,353.020294 1182.43412,352.448026 C1173.76897,351.875757 1165.51268,350.690362 1157.665,348.891805 L1157.665,183.834098 C1165.51268,182.03554 1173.85071,180.891021 1182.67936,180.400505 C1191.508,179.909989 1199.35556,179.664735 1206.22228,179.664735 C1220.4462,179.664735 1233.44373,181.340639 1245.21525,184.692496 C1256.98678,188.044353 1267.08234,193.276442 1275.50225,200.38892 C1283.92216,207.501397 1290.42092,216.49405 1294.99873,227.367148 C1299.57655,238.240246 1301.86542,251.197841 1301.86542,266.240323 Z M1327.12502,287.822906 C1327.12502,276.541045 1328.8008,266.649126 1332.15241,258.146854 C1335.50403,249.644582 1339.95915,242.573087 1345.51793,236.932156 C1351.0767,231.291226 1357.45285,227.040154 1364.64656,224.178812 C1371.84026,221.317471 1379.19736,219.886821 1386.71805,219.886821 C1404.37533,219.886821 1418.14944,225.364164 1428.04079,236.319015 C1437.93214,247.273865 1442.87774,263.624143 1442.87774,285.370339 C1442.87774,287.005392 1442.83687,288.844798 1442.75512,290.888613 C1442.67337,292.932429 1442.55075,294.771835 1442.38726,296.406887 L1357.77987,296.406887 C1358.59734,306.707717 1362.23501,314.678478 1368.693,320.319408 C1375.15098,325.960339 1384.51084,328.780762 1396.77284,328.780762 C1403.96655,328.780762 1410.54706,328.12675 1416.51457,326.818709 C1422.48207,325.510667 1427.18244,324.120893 1430.6158,322.649346 L1434.53962,346.929752 C1432.90469,347.747278 1430.65669,348.605667 1427.79555,349.504946 C1424.93442,350.404225 1421.6646,351.221739 1417.986,351.957512 C1414.3074,352.693286 1410.34274,353.306421 1406.09192,353.796937 C1401.84109,354.287453 1397.50858,354.532707 1393.09426,354.532707 C1381.81322,354.532707 1372.00376,352.856803 1363.6656,349.504946 C1355.32744,346.153089 1348.46082,341.49326 1343.06554,335.525319 C1337.67026,329.557378 1333.66473,322.526758 1331.04884,314.433249 C1328.43295,306.33974 1327.12502,297.469714 1327.12502,287.822906 Z M1413.20384,274.579048 C1413.20384,270.491417 1412.63162,266.608226 1411.48717,262.929358 C1410.34272,259.250491 1408.66693,256.062187 1406.45977,253.36435 C1404.25261,250.666514 1401.55501,248.540978 1398.36689,246.987678 C1395.17877,245.434378 1391.37761,244.65774 1386.96329,244.65774 C1382.38547,244.65774 1378.37995,245.51613 1374.94659,247.232935 C1371.51323,248.94974 1368.61126,251.197903 1366.24061,253.977492 C1363.86996,256.757081 1362.03068,259.945385 1360.72274,263.5425 C1359.41479,267.139615 1358.51559,270.818428 1358.02511,274.579048 L1413.20384,274.579048 Z M1547.34947,283.8988 C1547.34947,270.491371 1545.67369,260.803831 1542.32208,254.83589 C1538.97046,248.867949 1532.71694,245.884023 1523.56131,245.884023 C1520.29144,245.884023 1516.69464,246.129277 1512.7708,246.619793 C1508.84696,247.110309 1505.90412,247.519066 1503.9422,247.846076 L1503.9422,351.344371 L1474.26831,351.344371 L1474.26831,227.24452 C1479.99057,225.609468 1487.47028,224.056191 1496.70766,222.584644 C1505.94503,221.113097 1515.71361,220.377334 1526.0137,220.377334 C1534.84234,220.377334 1542.07681,221.521854 1547.71733,223.810927 C1553.35785,226.1 1558.05822,229.124802 1561.81856,232.885422 C1563.61699,231.57738 1565.90586,230.187607 1568.68525,228.71606 C1571.46464,227.244513 1574.57096,225.895615 1578.00433,224.669325 C1581.43769,223.443036 1585.07536,222.421144 1588.91745,221.603618 C1592.75955,220.786091 1596.64246,220.377334 1600.5663,220.377334 C1610.53939,220.377334 1618.75481,221.807984 1625.2128,224.669325 C1631.67078,227.530667 1636.739,231.536485 1640.4176,236.6869 C1644.0962,241.837315 1646.63031,248.05042 1648.02001,255.326403 C1649.4097,262.602386 1650.10454,270.573147 1650.10454,279.238924 L1650.10454,351.344371 L1620.43064,351.344371 L1620.43064,283.8988 C1620.43064,270.491371 1618.79573,260.803831 1615.52586,254.83589 C1612.256,248.867949 1605.9616,245.884023 1596.64247,245.884023 C1591.90117,245.884023 1587.40517,246.660661 1583.15434,248.213961 C1578.90351,249.767261 1575.71544,251.279662 1573.59003,252.751209 C1574.89797,256.838839 1575.79717,261.171663 1576.28765,265.74981 C1576.77813,270.327956 1577.02337,275.23304 1577.02337,280.465207 L1577.02337,351.344371 L1547.34947,351.344371 L1547.34947,283.8988 Z M1802.39784,287.087136 C1802.39784,297.22446 1800.92642,306.462367 1797.98354,314.801134 C1795.04066,323.139901 1790.87164,330.252272 1785.47636,336.13846 C1780.08108,342.024649 1773.58232,346.602726 1765.97988,349.872831 C1758.37744,353.142936 1749.99853,354.777964 1740.8429,354.777964 C1731.68727,354.777964 1723.34923,353.142936 1715.82854,349.872831 C1708.30784,346.602726 1701.84995,342.024649 1696.45467,336.13846 C1691.05939,330.252272 1686.8495,323.139901 1683.82487,314.801134 C1680.80025,306.462367 1679.28796,297.22446 1679.28796,287.087136 C1679.28796,276.949811 1680.80025,267.75278 1683.82487,259.495766 C1686.8495,251.238751 1691.10026,244.167256 1696.57729,238.281068 C1702.05432,232.39488 1708.55308,227.857677 1716.07378,224.669325 C1723.59447,221.480973 1731.85076,219.886821 1740.8429,219.886821 C1749.83503,219.886821 1758.1322,221.480973 1765.73464,224.669325 C1773.33708,227.857677 1779.83584,232.39488 1785.23112,238.281068 C1790.6264,244.167256 1794.8363,251.238751 1797.86092,259.495766 C1800.88555,267.75278 1802.39784,276.949811 1802.39784,287.087136 Z M1771.98823,287.087136 C1771.98823,274.333728 1769.24975,264.237431 1763.77273,256.797943 C1758.2957,249.358455 1750.6525,245.638767 1740.8429,245.638767 C1731.0333,245.638767 1723.3901,249.358455 1717.91307,256.797943 C1712.43604,264.237431 1709.69757,274.333728 1709.69757,287.087136 C1709.69757,300.004049 1712.43604,310.222973 1717.91307,317.744214 C1723.3901,325.265454 1731.0333,329.026018 1740.8429,329.026018 C1750.6525,329.026018 1758.2957,325.265454 1763.77273,317.744214 C1769.24975,310.222973 1771.98823,300.004049 1771.98823,287.087136 Z M1862.72659,273.107508 C1866.48694,269.183383 1870.49246,264.973186 1874.74329,260.476792 C1878.99412,255.980398 1883.16314,251.484072 1887.25047,246.987678 C1891.3378,242.491284 1895.22071,238.15846 1898.89931,233.989077 C1902.57791,229.819694 1905.72511,226.181757 1908.34101,223.075157 L1943.41016,223.075157 C1935.23549,232.23145 1926.61135,241.714612 1917.53746,251.524925 C1908.46358,261.335239 1899.34896,270.900152 1890.19334,280.21995 C1895.09814,284.307581 1900.2481,289.25354 1905.64338,295.057976 C1911.03866,300.862412 1916.27037,307.034642 1921.33867,313.574851 C1926.40696,320.11506 1931.1482,326.655171 1935.56252,333.195381 C1939.97684,339.73559 1943.65538,345.785193 1946.59826,351.344371 L1912.26483,351.344371 C1909.32195,346.275709 1905.92951,340.961868 1902.08742,335.40269 C1898.24532,329.843512 1894.11718,324.447921 1889.70286,319.215753 C1885.28854,313.983586 1880.79254,309.037627 1876.21472,304.377728 C1871.63691,299.717829 1867.14091,295.752886 1862.72659,292.482781 L1862.72659,351.344371 L1833.05269,351.344371 L1833.05269,165.930364 L1862.72659,161.025232 L1862.72659,273.107508 Z M2041.26045,249.808129 C2038.80805,248.990603 2035.41561,248.132213 2031.08303,247.232935 C2026.75046,246.333656 2021.72312,245.884023 2016.00085,245.884023 C2012.73098,245.884023 2009.2568,246.211029 2005.5782,246.86505 C2001.8996,247.519071 1999.32462,248.09133 1997.85318,248.581846 L1997.85318,351.344371 L1968.17928,351.344371 L1968.17928,229.206573 C1973.90155,227.081005 1981.05427,225.078096 1989.63768,223.197786 C1998.22108,221.317475 2007.74442,220.377334 2018.208,220.377334 C2020.16992,220.377334 2022.45879,220.499962 2025.07468,220.745219 C2027.69058,220.990477 2030.30643,221.317483 2032.92233,221.726246 C2035.53822,222.135009 2038.07233,222.625517 2040.52473,223.197786 C2042.97713,223.770054 2044.93902,224.301438 2046.41046,224.791954 L2041.26045,249.808129 Z M2112.13446,330.497558 C2121.29009,330.497558 2128.23845,330.00705 2132.97976,329.026018 L2132.97976,296.161631 C2131.34483,295.671115 2128.97421,295.180607 2125.86784,294.690091 C2122.76146,294.199575 2119.32815,293.954321 2115.56781,293.954321 C2112.29794,293.954321 2108.98725,294.199575 2105.63563,294.690091 C2102.28402,295.180607 2099.25944,296.079872 2096.5618,297.387914 C2093.86416,298.695956 2091.6979,300.535362 2090.06297,302.906188 C2088.42804,305.277014 2087.61058,308.26094 2087.61058,311.858055 C2087.61058,318.88878 2089.81771,323.752987 2094.23203,326.450824 C2098.64635,329.14866 2104.61377,330.497558 2112.13446,330.497558 Z M2109.68207,219.886821 C2119.49168,219.886821 2127.74797,221.113092 2134.4512,223.565671 C2141.15442,226.018249 2146.50875,229.451807 2150.51434,233.866449 C2154.51992,238.28109 2157.38102,243.635806 2159.0977,249.930757 C2160.81438,256.225709 2161.6727,263.133701 2161.6727,270.654942 L2161.6727,348.401291 C2157.09489,349.382323 2150.1874,350.567718 2140.95002,351.957512 C2131.71265,353.347307 2121.2901,354.042194 2109.68207,354.042194 C2101.99789,354.042194 2094.96778,353.306431 2088.59154,351.834884 C2082.2153,350.363337 2076.77922,347.992547 2072.28316,344.722442 C2067.78709,341.452337 2064.27203,337.201265 2061.73789,331.969098 C2059.20374,326.73693 2057.93668,320.27857 2057.93668,312.593825 C2057.93668,305.236089 2059.36723,299.022983 2062.22836,293.954321 C2065.0895,288.885659 2068.97241,284.757214 2073.87721,281.568862 C2078.78201,278.38051 2084.46332,276.091471 2090.92131,274.701676 C2097.37929,273.311882 2104.12329,272.616995 2111.15351,272.616995 C2114.42337,272.616995 2117.85668,272.821374 2121.45354,273.230137 C2125.05039,273.6389 2128.89243,274.333786 2132.97976,275.314818 L2132.97976,270.409685 C2132.97976,266.976076 2132.57103,263.70602 2131.75357,260.599421 C2130.9361,257.492821 2129.50556,254.75415 2127.46189,252.383324 C2125.41822,250.012498 2122.72062,248.173092 2119.36901,246.86505 C2116.01739,245.557008 2111.8075,244.902997 2106.73921,244.902997 C2099.87249,244.902997 2093.57809,245.393505 2087.85582,246.374536 C2082.13355,247.355568 2077.47406,248.500087 2073.87721,249.808129 L2070.19863,225.77298 C2073.95897,224.464938 2079.43592,223.156916 2086.62963,221.848874 C2093.82333,220.540832 2101.50741,219.886821 2109.68207,219.886821 Z M2196.49662,189.229743 L2226.17051,184.324611 L2226.17051,223.075157 L2271.78493,223.075157 L2271.78493,247.846076 L2226.17051,247.846076 L2226.17051,300.085737 C2226.17051,310.386566 2227.80542,317.744192 2231.07529,322.158833 C2234.34516,326.573474 2239.90385,328.780762 2247.75153,328.780762 C2253.14681,328.780762 2257.92892,328.208502 2262.098,327.063965 C2266.26708,325.919429 2269.57777,324.856661 2272.03017,323.875629 L2276.93495,347.420265 C2273.50159,348.891812 2269.00559,350.404213 2263.44681,351.957512 C2257.88804,353.510812 2251.3484,354.28745 2243.82771,354.28745 C2234.67208,354.28745 2227.02888,353.061179 2220.89788,350.608601 C2214.76688,348.156023 2209.90302,344.599837 2206.30617,339.939938 C2202.70931,335.280039 2200.1752,329.639193 2198.70376,323.017231 C2197.23232,316.395269 2196.49662,308.833265 2196.49662,300.330993 L2196.49662,189.229743 Z M2330.39701,351.344371 L2300.72311,351.344371 L2300.72311,223.075157 L2330.39701,223.075157 L2330.39701,351.344371 Z M2333.58511,185.550894 C2333.58511,191.110072 2331.78671,195.524647 2328.18986,198.794752 C2324.593,202.064856 2320.34224,203.699884 2315.43744,203.699884 C2310.36915,203.699884 2306.03664,202.064856 2302.43978,198.794752 C2298.84293,195.524647 2297.04453,191.110072 2297.04453,185.550894 C2297.04453,179.828211 2298.84293,175.331884 2302.43978,172.06178 C2306.03664,168.791675 2310.36915,167.156647 2315.43744,167.156647 C2320.34224,167.156647 2324.593,168.791675 2328.18986,172.06178 C2331.78671,175.331884 2333.58511,179.828211 2333.58511,185.550894 Z M2361.05186,287.822906 C2361.05186,276.541045 2362.72764,266.649126 2366.07926,258.146854 C2369.43087,249.644582 2373.886,242.573087 2379.44477,236.932156 C2385.00354,231.291226 2391.37969,227.040154 2398.5734,224.178812 C2405.76711,221.317471 2413.1242,219.886821 2420.64489,219.886821 C2438.30217,219.886821 2452.07628,225.364164 2461.96763,236.319015 C2471.85898,247.273865 2476.80458,263.624143 2476.80458,285.370339 C2476.80458,287.005392 2476.76371,288.844798 2476.68196,290.888613 C2476.60021,292.932429 2476.4776,294.771835 2476.3141,296.406887 L2391.70671,296.406887 C2392.52418,306.707717 2396.16185,314.678478 2402.61984,320.319408 C2409.07783,325.960339 2418.43768,328.780762 2430.69968,328.780762 C2437.89339,328.780762 2444.4739,328.12675 2450.44141,326.818709 C2456.40892,325.510667 2461.10928,324.120893 2464.54264,322.649346 L2468.46646,346.929752 C2466.83153,347.747278 2464.58353,348.605667 2461.72239,349.504946 C2458.86126,350.404225 2455.59144,351.221739 2451.91284,351.957512 C2448.23424,352.693286 2444.26959,353.306421 2440.01876,353.796937 C2435.76793,354.287453 2431.43542,354.532707 2427.0211,354.532707 C2415.74006,354.532707 2405.9306,352.856803 2397.59244,349.504946 C2389.25428,346.153089 2382.38766,341.49326 2376.99238,335.525319 C2371.5971,329.557378 2367.59157,322.526758 2364.97568,314.433249 C2362.35979,306.33974 2361.05186,297.469714 2361.05186,287.822906 Z M2447.13068,274.579048 C2447.13068,270.491417 2446.55847,266.608226 2445.41401,262.929358 C2444.26956,259.250491 2442.59378,256.062187 2440.38662,253.36435 C2438.17946,250.666514 2435.48186,248.540978 2432.29374,246.987678 C2429.10561,245.434378 2425.30445,244.65774 2420.89013,244.65774 C2416.31232,244.65774 2412.30679,245.51613 2408.87343,247.232935 C2405.44007,248.94974 2402.5381,251.197903 2400.16745,253.977492 C2397.7968,256.757081 2395.95752,259.945385 2394.64958,263.5425 C2393.34163,267.139615 2392.44243,270.818428 2391.95195,274.579048 L2447.13068,274.579048 Z"/>
    <path id="b" d="M1186.1127,568.082781 L1156.4388,568.082781 L1156.4388,439.813568 L1186.1127,439.813568 L1186.1127,568.082781 Z M1189.3008,402.289305 C1189.3008,407.848483 1187.5024,412.263058 1183.90555,415.533162 C1180.3087,418.803267 1176.05793,420.438295 1171.15313,420.438295 C1166.08484,420.438295 1161.75233,418.803267 1158.15547,415.533162 C1154.55862,412.263058 1152.76022,407.848483 1152.76022,402.289305 C1152.76022,396.566621 1154.55862,392.070295 1158.15547,388.80019 C1161.75233,385.530086 1166.08484,383.895058 1171.15313,383.895058 C1176.05793,383.895058 1180.3087,385.530086 1183.90555,388.80019 C1187.5024,392.070295 1189.3008,396.566621 1189.3008,402.289305 Z M1223.87948,443.98293 C1229.60174,442.347878 1237.04058,440.794602 1246.19621,439.323055 C1255.35184,437.851508 1265.48827,437.115745 1276.60582,437.115745 C1287.0694,437.115745 1295.81616,438.546394 1302.84638,441.407736 C1309.87659,444.269077 1315.47615,448.274896 1319.64523,453.42531 C1323.81431,458.575725 1326.75715,464.788831 1328.47383,472.064814 C1330.19051,479.340797 1331.04884,487.311557 1331.04884,495.977334 L1331.04884,568.082781 L1301.37494,568.082781 L1301.37494,500.63721 C1301.37494,493.76999 1300.92534,487.924766 1300.02613,483.101362 C1299.12692,478.277957 1297.6555,474.353891 1295.61183,471.329044 C1293.56816,468.304197 1290.78882,466.09691 1287.27371,464.707115 C1283.7586,463.317321 1279.46697,462.622434 1274.39867,462.622434 C1270.63833,462.622434 1266.71454,462.867688 1262.62721,463.358204 C1258.53988,463.848719 1255.51529,464.257476 1253.55337,464.584487 L1253.55337,568.082781 L1223.87948,568.082781 L1223.87948,443.98293 Z M1425.95626,568.082781 L1425.95626,398.119942 L1535.08753,398.119942 L1535.08753,424.362401 L1456.85635,424.362401 L1456.85635,466.301283 L1526.50417,466.301283 L1526.50417,492.053228 L1456.85635,492.053228 L1456.85635,541.840323 L1540.97326,541.840323 L1540.97326,568.082781 L1425.95626,568.082781 Z M1669.23316,564.158675 C1663.5109,565.630223 1656.07206,567.142623 1646.91643,568.695923 C1637.7608,570.249223 1627.70611,571.025861 1616.75206,571.025861 C1606.45198,571.025861 1597.82783,569.554336 1590.87936,566.611242 C1583.9309,563.668148 1578.3722,559.580578 1574.20312,554.348411 C1570.03404,549.116243 1567.05033,542.862262 1565.25191,535.586279 C1563.45348,528.310296 1562.55428,520.339536 1562.55428,511.673758 L1562.55428,439.813568 L1592.22818,439.813568 L1592.22818,507.013882 C1592.22818,520.748322 1594.23094,530.558489 1598.23653,536.444677 C1602.24211,542.330866 1609.23135,545.273916 1619.20445,545.273916 C1622.8013,545.273916 1626.60246,545.110413 1630.60805,544.783402 C1634.61364,544.456392 1637.59735,544.047635 1639.55927,543.557119 L1639.55927,439.813568 L1669.23316,439.813568 L1669.23316,564.158675 Z M1780.08111,466.54654 C1777.62871,465.729014 1774.23627,464.870624 1769.9037,463.971345 C1765.57112,463.072066 1760.54378,462.622434 1754.82151,462.622434 C1751.55164,462.622434 1748.07746,462.949439 1744.39886,463.60346 C1740.72026,464.257481 1738.14528,464.829741 1736.67384,465.320257 L1736.67384,568.082781 L1706.99994,568.082781 L1706.99994,445.944983 C1712.72221,443.819415 1719.87494,441.816506 1728.45834,439.936196 C1737.04174,438.055886 1746.56508,437.115745 1757.02866,437.115745 C1758.99058,437.115745 1761.27945,437.238372 1763.89535,437.48363 C1766.51124,437.728888 1769.12709,438.055893 1771.74299,438.464656 C1774.35888,438.87342 1776.89299,439.363928 1779.34539,439.936196 C1781.79779,440.508465 1783.75968,441.039849 1785.23112,441.530364 L1780.08111,466.54654 Z M1921.82914,503.825546 C1921.82914,513.962871 1920.35772,523.200778 1917.41484,531.539545 C1914.47196,539.878312 1910.30295,546.990682 1904.90766,552.876871 C1899.51238,558.763059 1893.01362,563.341137 1885.41118,566.611242 C1877.80874,569.881346 1869.42983,571.516374 1860.2742,571.516374 C1851.11857,571.516374 1842.78054,569.881346 1835.25984,566.611242 C1827.73915,563.341137 1821.28126,558.763059 1815.88598,552.876871 C1810.49069,546.990682 1806.2808,539.878312 1803.25618,531.539545 C1800.23155,523.200778 1798.71926,513.962871 1798.71926,503.825546 C1798.71926,493.688222 1800.23155,484.491191 1803.25618,476.234176 C1806.2808,467.977162 1810.53157,460.905667 1816.00859,455.019478 C1821.48562,449.13329 1827.98439,444.596088 1835.50508,441.407736 C1843.02577,438.219384 1851.28207,436.625232 1860.2742,436.625232 C1869.26634,436.625232 1877.5635,438.219384 1885.16594,441.407736 C1892.76838,444.596088 1899.26715,449.13329 1904.66243,455.019478 C1910.05771,460.905667 1914.2676,467.977162 1917.29222,476.234176 C1920.31685,484.491191 1921.82914,493.688222 1921.82914,503.825546 Z M1891.41953,503.825546 C1891.41953,491.072138 1888.68106,480.975842 1883.20403,473.536353 C1877.727,466.096865 1870.0838,462.377177 1860.2742,462.377177 C1850.4646,462.377177 1842.8214,466.096865 1837.34437,473.536353 C1831.86734,480.975842 1829.12887,491.072138 1829.12887,503.825546 C1829.12887,516.74246 1831.86734,526.961383 1837.34437,534.482624 C1842.8214,542.003865 1850.4646,545.764429 1860.2742,545.764429 C1870.0838,545.764429 1877.727,542.003865 1883.20403,534.482624 C1888.68106,526.961383 1891.41953,516.74246 1891.41953,503.825546 Z M2037.58186,504.561316 C2037.58186,491.317392 2034.59815,481.016717 2028.63065,473.658982 C2022.66314,466.301246 2013.05805,462.622434 1999.81509,462.622434 C1997.0357,462.622434 1994.13374,462.745061 1991.10911,462.990319 C1988.08448,463.235577 1985.10077,463.766961 1982.15789,464.584487 L1982.15789,537.916217 C1984.77379,539.714774 1988.24797,541.390678 1992.58054,542.943978 C1996.91311,544.497277 2001.53173,545.273916 2006.43653,545.273916 C2017.2271,545.273916 2025.11553,541.595103 2030.10208,534.237368 C2035.08863,526.879632 2037.58186,516.987714 2037.58186,504.561316 Z M2067.99148,504.070803 C2067.99148,513.881117 2066.72442,522.87377 2064.19027,531.049031 C2061.65613,539.224293 2058.01845,546.254913 2053.27715,552.141101 C2048.53584,558.027289 2042.60929,562.605367 2035.49733,565.875472 C2028.38537,569.145577 2020.33344,570.780604 2011.34131,570.780604 C2005.29206,570.780604 1999.73336,570.044842 1994.66507,568.573295 C1989.59678,567.101748 1985.42776,565.46672 1982.15789,563.668162 L1982.15789,613.455257 L1952.48399,613.455257 L1952.48399,443.98293 C1958.53325,442.347878 1965.97209,440.794602 1974.80073,439.323055 C1983.62937,437.851508 1992.94835,437.115745 2002.75795,437.115745 C2012.89454,437.115745 2021.96829,438.669021 2029.97946,441.775621 C2037.99063,444.88222 2044.81638,449.337671 2050.4569,455.142107 C2056.09742,460.946543 2060.42993,467.977162 2063.45456,476.234176 C2066.47919,484.491191 2067.99148,493.769973 2067.99148,504.070803 Z M2143.77027,547.235969 C2152.9259,547.235969 2159.87426,546.74546 2164.61557,545.764429 L2164.61557,512.900041 C2162.98064,512.409526 2160.61002,511.919017 2157.50364,511.428502 C2154.39727,510.937986 2150.96396,510.692732 2147.20361,510.692732 C2143.93375,510.692732 2140.62306,510.937986 2137.27144,511.428502 C2133.91983,511.919017 2130.89525,512.818283 2128.19761,514.126325 C2125.49996,515.434366 2123.33371,517.273773 2121.69878,519.644599 C2120.06384,522.015424 2119.24639,524.99935 2119.24639,528.596465 C2119.24639,535.62719 2121.45352,540.491398 2125.86784,543.189234 C2130.28216,545.887071 2136.24958,547.235969 2143.77027,547.235969 Z M2141.31788,436.625232 C2151.12748,436.625232 2159.38377,437.851503 2166.087,440.304081 C2172.79023,442.75666 2178.14456,446.190218 2182.15014,450.604859 C2186.15573,455.019501 2189.01682,460.374217 2190.7335,466.669168 C2192.45018,472.964119 2193.30851,479.872112 2193.30851,487.393353 L2193.30851,565.139702 C2188.7307,566.120733 2181.82321,567.306129 2172.58583,568.695923 C2163.34846,570.085717 2152.92591,570.780604 2141.31788,570.780604 C2133.63369,570.780604 2126.60358,570.044842 2120.22734,568.573295 C2113.8511,567.101748 2108.41503,564.730957 2103.91896,561.460853 C2099.4229,558.190748 2095.90784,553.939676 2093.37369,548.707508 C2090.83955,543.475341 2089.57249,537.016981 2089.57249,529.332235 C2089.57249,521.9745 2091.00304,515.761394 2093.86417,510.692732 C2096.72531,505.62407 2100.60821,501.495624 2105.51301,498.307272 C2110.41782,495.11892 2116.09912,492.829881 2122.55711,491.440087 C2129.0151,490.050292 2135.7591,489.355406 2142.78931,489.355406 C2146.05918,489.355406 2149.49249,489.559784 2153.08934,489.968547 C2156.6862,490.37731 2160.52824,491.072197 2164.61557,492.053228 L2164.61557,487.148096 C2164.61557,483.714486 2164.20684,480.444431 2163.38938,477.337831 C2162.57191,474.231232 2161.14136,471.49256 2159.0977,469.121734 C2157.05403,466.750908 2154.35643,464.911502 2151.00481,463.60346 C2147.6532,462.295418 2143.44331,461.641407 2138.37502,461.641407 C2131.50829,461.641407 2125.21389,462.131916 2119.49163,463.112947 C2113.76936,464.093978 2109.10987,465.238498 2105.51301,466.54654 L2101.83443,442.511391 C2105.59478,441.203349 2111.07173,439.895327 2118.26543,438.587285 C2125.45914,437.279243 2133.14321,436.625232 2141.31788,436.625232 Z"/>
    <linearGradient id="c" x1="0%" y1="50%" y2="50%">
      <stop stop-color="#EB4424" offset="0%"/>
      <stop stop-color="#ED3025" offset="100%"/>
    </linearGradient>
  </defs>
  <g fill="none" fill-rule="evenodd" transform="translate(-139)">
    <rect width="3020.43" height="688.43" x=".285" y=".285" stroke="#979797" stroke-opacity=".043" stroke-width="5"/>
    <use fill="#000000" xlink:href="#a"/>
    <use fill="#394662" xlink:href="#a"/>
    <use fill="#000000" xlink:href="#b"/>
    <use fill="#394662" xlink:href="#b"/>
    <path fill="#394662" fill-rule="nonzero" d="M590.74532,257.955123 C583.631598,242.588672 571.5968,220.475284 554.342243,190.766136 C553.420961,189.17986 552.135502,187.229738 550.566003,185.095591 C551.060589,184.517361 551.568853,183.923624 552.089059,183.316383 C555.766897,183.254666 559.299276,183.223808 562.686202,183.223808 C595.510345,183.223808 625.291354,186.912126 652.030124,194.288874 C678.768894,201.665622 701.727011,213.283825 720.90516,229.143833 C740.083308,245.003841 754.835512,265.289592 765.162211,290.001697 C775.488909,314.713802 780.652179,344.404766 780.652179,379.07548 C780.652179,412.270845 775.488909,441.224145 765.162211,465.93625 C754.835512,490.648355 740.175512,511.118522 721.181766,527.347368 C702.18802,543.576213 679.0455,555.747664 651.753517,563.862086 C624.461534,571.97651 593.850711,576.033659 559.920136,576.033659 C544.43009,576.033659 526.358642,575.388201 505.705248,574.097272 C485.051855,572.806344 464.767576,570.132311 444.851803,566.075099 L444.851803,294.997116 C446.167988,294.17313 447.521748,293.349428 448.914415,292.526061 L461.592705,301.872336 C501.037627,331.187732 524.122173,354.539552 530.437602,370.002588 C530.676152,370.586665 530.914569,371.196181 531.153053,371.832036 L531.153053,500.791209 C535.209969,501.160046 539.912234,501.43667 545.259988,501.621089 C550.607742,501.805507 556.969629,501.897715 564.345841,501.897715 C607.496683,501.897715 639.490521,491.017176 660.328321,469.25577 C681.16612,447.494364 691.584863,417.434568 691.584863,379.07548 C691.584863,338.872205 681.627124,308.443577 661.711354,287.788684 C645.630286,271.11081 621.975109,261.166344 590.74532,257.955123 Z M571.859947,256.849021 C570.293213,256.820672 568.710532,256.806498 567.111907,256.806498 C561.210937,256.806498 555.125653,256.898706 548.855873,257.083125 C542.586093,257.267544 536.685212,257.728583 531.153053,258.466258 L531.153053,341.309209 C518.354677,326.230588 498.447679,308.653206 471.432059,288.577063 L449.704566,272.559831 C447.839791,273.7916 446.205114,274.845483 444.851803,275.691482 L444.851803,192.629114 C464.767576,188.94074 485.512861,186.451126 507.088281,185.160195 C515.085532,184.681692 522.664702,184.291873 529.82582,183.990736 C529.278522,184.655262 528.930064,185.093186 528.841074,185.234711 C531.019354,187.792509 532.884956,189.437576 534.437879,191.310639 C537.610084,195.136806 539.477558,198.104723 540.040301,199.073663 C554.214018,223.478172 564.820566,242.736625 571.859947,256.849021 Z M787.952311,571.054379 L787.952311,183.086921 L1046.85606,183.086921 L1046.85606,256.425647 L874.253561,256.425647 L874.253561,332.56356 L1027.4936,332.56356 L1027.4936,404.222774 L874.253561,404.222774 L874.253561,497.715653 L1059.57996,497.715653 L1059.57996,571.054379 L787.952311,571.054379 Z"/>
    <path fill="url(#c)" fill-rule="nonzero" d="M485.213025,140.206125 C486.647526,140.899233 487.844669,141.172966 488.804456,141.027322 C490.377052,140.788688 492.601826,139.228525 495.478781,136.346833 C505.733585,128.710772 513.625908,123.926923 519.155749,121.995285 C527.45051,119.097829 537.433863,119.626476 541.185695,120.380879 C543.686916,120.883814 547.072149,122.054565 551.341393,123.89313 L564.063288,124.490949 L556.041013,136.109535 C556.009658,139.360769 555.201945,143.064402 553.617875,147.220433 C552.033805,151.376464 548.909063,157.99018 544.24365,167.061581 C538.111019,174.195305 529.343339,184.435936 528.841074,185.234711 C531.019354,187.792509 532.884956,189.437576 534.437879,191.310639 C537.610084,195.136806 539.477558,198.104723 540.040301,199.073663 C565.189926,242.376648 579.108533,269.47758 581.796117,280.376458 C586.061185,297.67246 587.517362,325.939524 587.248557,342.731235 C585.727044,437.777722 571.278645,479.486743 571.104064,480.359712 C570.835208,481.704073 570.566358,482.241818 570.297502,481.972945 C569.2375,481.5672 568.658968,481.029455 568.561904,480.359712 C560.151696,422.329278 553.413042,382.513259 545.748991,363.748186 C537.952261,344.658254 513.179951,319.601213 471.432059,288.577063 L449.704566,272.559831 C446.517835,274.664812 444.003078,276.250301 442.416147,277.166582 C413.796983,293.691064 403.417269,308.524664 400.044862,312.170082 C349.620827,366.67618 271.698297,449.918959 264.821565,453.703878 C262.037422,455.236256 260.25761,457.085342 259.482129,455.828951 C258.98067,455.016515 259.469491,453.621021 259.807948,451.642469 L362.958774,309.245304 C364.083302,307.051596 364.117194,305.933623 363.060452,305.891386 C362.00371,305.849149 360.85326,306.347246 359.609104,307.385678 C279.133015,348.11059 216.406215,383.167758 213.736685,383.878402 C209.732391,384.944367 207.221991,386.556514 206.651668,384.361583 C206.271453,382.898296 208.117879,381.516003 215.532076,375.812361 C308.267251,313.572311 378.008319,260.339681 385.869233,250.496894 C393.730148,240.654107 399.010319,232.529322 401.709748,226.122538 L403.596827,222.513098 C400.721999,217.201949 397.121377,211.468333 392.650287,205.226656 C369.574563,173.012767 352.526231,161.445256 323.893412,149.749312 C305.116031,142.079121 254.555874,133.948927 176.769437,122.000275 C175.910091,121.868272 175.372385,121.109937 175.15632,119.725271 C174.887468,119.456399 175.425173,119.187526 176.769437,118.918654 C177.642342,118.74406 250.30053,93.8219194 345.340116,92.3002982 C362.130608,92.0314759 374.008426,90.5234648 396.287713,94.8545849 C409.516993,97.4263727 434.495894,109.936908 471.224415,132.38619 C474.616469,134.459488 484.29712,139.763586 485.213025,140.206125 Z"/>
  </g>
</svg>
