<svg xmlns="http://www.w3.org/2000/svg" width="995" height="1033" viewBox="0 0 995 1033">
  <defs>
    <linearGradient id="a" x1="46.635%" x2="95.652%" y1="15.09%" y2="64.506%">
      <stop stop-color="#EB5F24" offset="0%"/>
      <stop stop-color="#ED3025" offset="100%"/>
    </linearGradient>
  </defs>
  <g fill="none" fill-rule="evenodd" transform="translate(-141 -117)">
    <rect width="1239" height="1239" x=".5" y=".059"/>
    <path fill="url(#a)" d="M897.252236,230.064104 C900.937366,231.844729 904.012746,232.54796 906.478376,232.173796 C910.518266,231.560734 916.233556,227.552608 923.624256,220.149418 C949.968146,200.532045 970.242986,188.242129 984.448766,183.279668 C1005.75745,175.835978 1031.404,177.194095 1041.0422,179.132189 C1047.46767,180.424251 1056.1641,183.43196 1067.13149,188.155315 L1099.81317,189.691137 L1079.2045,219.539788 C1079.12395,227.892349 1079.25429,213.106179 1072.97962,248.084166 C1066.70495,283.062152 1010.62,343.692406 1009.32971,345.744493 C1014.92557,352.315586 1019.71817,356.541833 1023.70752,361.353815 C1031.8567,371.183401 1036.26401,379.071395 1038.09976,381.297357 C1203.10477,581.376068 1118.34893,1101.6907 1117.90044,1103.93339 C1117.20978,1107.38712 1116.51911,1108.76861 1115.82845,1108.07786 C1113.10537,1107.03548 1111.72666,1105.63721 1111.36981,1103.93339 C1050.03816,811.098235 871.178171,519.332766 803.49127,569.381918 C735.80437,619.43107 687.124531,662.481717 678.461051,671.846955 C548.925154,811.875483 348.747504,1025.72978 331.081649,1035.4534 C323.929377,1039.39015 319.357162,1044.14053 317.365004,1040.91281 C316.07679,1038.82562 317.332539,1035.24054 318.20201,1030.15755 L583.189428,664.333076 C586.078261,658.697344 586.165328,655.825223 583.45063,655.716714 C580.735932,655.608205 577.780506,656.887839 574.584352,659.555616 C367.846786,764.179677 206.705927,854.243059 199.848088,856.068734 C189.56133,858.807246 183.112284,862.948921 181.647163,857.310048 C180.670417,853.550799 185.413759,849.99963 204.460323,835.346726 C442.690645,675.449342 621.850676,538.69241 642.044828,513.405865 C662.238981,488.119319 686.115418,454.913543 684.430501,435.65261 C675.340621,331.742754 304.709793,213.989093 104.881755,183.292487 C102.674154,182.953366 101.292825,181.005171 100.737769,177.447903 C100.047105,176.757159 101.428433,176.066414 104.881755,175.37567 C107.124188,174.927131 629.800687,58.0018795 861.316454,209.974353 C869.821011,215.556947 894.899336,228.927202 897.252236,230.064104 Z" transform="rotate(5 620.312 620.125)"/>
  </g>
</svg>
